%TF.GenerationSoftware,KiCad,Pcbnew,9.0.1*%
%TF.CreationDate,2025-08-22T12:00:28+01:00*%
%TF.ProjectId,FM_DRUM_MACHINE_POWERIN,464d5f44-5255-44d5-9f4d-414348494e45,rev?*%
%TF.SameCoordinates,Original*%
%TF.FileFunction,Soldermask,Bot*%
%TF.FilePolarity,Negative*%
%FSLAX46Y46*%
G04 Gerber Fmt 4.6, Leading zero omitted, Abs format (unit mm)*
G04 Created by KiCad (PCBNEW 9.0.1) date 2025-08-22 12:00:28*
%MOMM*%
%LPD*%
G01*
G04 APERTURE LIST*
%ADD10C,1.397000*%
%ADD11R,1.800000X1.800000*%
%ADD12C,1.800000*%
%ADD13C,1.600000*%
%ADD14R,1.700000X1.700000*%
%ADD15C,1.700000*%
%ADD16O,3.220000X1.712000*%
%ADD17O,1.712000X3.220000*%
%ADD18R,1.050000X1.500000*%
%ADD19O,1.050000X1.500000*%
%ADD20R,1.600000X1.600000*%
%ADD21R,2.000000X2.000000*%
%ADD22O,2.000000X2.000000*%
%ADD23R,1.600000X2.400000*%
%ADD24O,1.600000X2.400000*%
G04 APERTURE END LIST*
D10*
%TO.C,R5*%
X79870000Y-34250000D03*
X72250000Y-34250000D03*
%TD*%
%TO.C,R4*%
X79810000Y-24250000D03*
X72190000Y-24250000D03*
%TD*%
D11*
%TO.C,D4*%
X76250000Y-47750000D03*
D12*
X76250000Y-45210000D03*
%TD*%
D11*
%TO.C,D3*%
X76250000Y-40500000D03*
D12*
X76250000Y-37960000D03*
%TD*%
D11*
%TO.C,D2*%
X76250000Y-30500000D03*
D12*
X76250000Y-27960000D03*
%TD*%
D13*
%TO.C,C5*%
X26000000Y-42960000D03*
X26000000Y-48040000D03*
%TD*%
D10*
%TO.C,R1*%
X30500000Y-38190000D03*
X30500000Y-45810000D03*
%TD*%
D13*
%TO.C,C4*%
X68000000Y-35450000D03*
X68000000Y-30370000D03*
%TD*%
D14*
%TO.C,J5*%
X60000000Y-54960000D03*
D15*
X62540000Y-54960000D03*
X65080000Y-54960000D03*
X67620000Y-54960000D03*
%TD*%
D16*
%TO.C,J1*%
X26125000Y-34000000D03*
X26125000Y-28000000D03*
D17*
X21425000Y-31000000D03*
%TD*%
D14*
%TO.C,J6*%
X72000000Y-54960000D03*
D15*
X74540000Y-54960000D03*
X77080000Y-54960000D03*
X79620000Y-54960000D03*
%TD*%
D13*
%TO.C,C1*%
X36500000Y-30460000D03*
X36500000Y-35540000D03*
%TD*%
D14*
%TO.C,J3*%
X35000000Y-54960000D03*
D15*
X37540000Y-54960000D03*
X40080000Y-54960000D03*
X42620000Y-54960000D03*
%TD*%
D18*
%TO.C,Q1*%
X57460000Y-42250000D03*
D19*
X58730000Y-42250000D03*
X60000000Y-42250000D03*
%TD*%
D13*
%TO.C,C2*%
X51000000Y-35500000D03*
X51000000Y-30420000D03*
%TD*%
D20*
%TO.C,C6*%
X66750000Y-41250000D03*
D13*
X66750000Y-43250000D03*
%TD*%
D14*
%TO.C,J6*%
X72000000Y-57500000D03*
D15*
X74540000Y-57500000D03*
X77080000Y-57500000D03*
X79620000Y-57500000D03*
%TD*%
D14*
%TO.C,J3*%
X35000000Y-57500000D03*
D15*
X37540000Y-57500000D03*
X40080000Y-57500000D03*
X42620000Y-57500000D03*
%TD*%
D14*
%TO.C,J4*%
X47500000Y-57500000D03*
D15*
X50040000Y-57500000D03*
X52580000Y-57500000D03*
X55120000Y-57500000D03*
%TD*%
D13*
%TO.C,C3*%
X54500000Y-35490000D03*
X54500000Y-30410000D03*
%TD*%
D21*
%TO.C,D1*%
X33000000Y-35620000D03*
D22*
X33000000Y-28000000D03*
%TD*%
D10*
%TO.C,R2*%
X33500000Y-42455000D03*
X33500000Y-50075000D03*
%TD*%
%TO.C,R3*%
X51340000Y-48250000D03*
X51340000Y-40630000D03*
%TD*%
D14*
%TO.C,J5*%
X60000000Y-57500000D03*
D15*
X62540000Y-57500000D03*
X65080000Y-57500000D03*
X67620000Y-57500000D03*
%TD*%
D14*
%TO.C,J2*%
X22500000Y-54960000D03*
D15*
X25040000Y-54960000D03*
X27580000Y-54960000D03*
X30120000Y-54960000D03*
%TD*%
D18*
%TO.C,Q2*%
X57500000Y-47000000D03*
D19*
X58770000Y-47000000D03*
X60040000Y-47000000D03*
%TD*%
D23*
%TO.C,U1*%
X40200000Y-47825000D03*
D24*
X42740000Y-47825000D03*
X45280000Y-47825000D03*
X47820000Y-47825000D03*
X47820000Y-40205000D03*
X45280000Y-40205000D03*
X42740000Y-40205000D03*
X40200000Y-40205000D03*
%TD*%
D14*
%TO.C,J4*%
X47500000Y-54960000D03*
D15*
X50040000Y-54960000D03*
X52580000Y-54960000D03*
X55120000Y-54960000D03*
%TD*%
D20*
%TO.C,C7*%
X66750000Y-47000000D03*
D13*
X66750000Y-49000000D03*
%TD*%
D14*
%TO.C,J2*%
X22500000Y-57500000D03*
D15*
X25040000Y-57500000D03*
X27580000Y-57500000D03*
X30120000Y-57500000D03*
%TD*%
M02*
