M48
; DRILL file {KiCad 9.0.1} date 2025-08-22T12:00:30+0100
; FORMAT={-:-/ absolute / metric / decimal}
; #@! TF.CreationDate,2025-08-22T12:00:30+01:00
; #@! TF.GenerationSoftware,Kicad,Pcbnew,9.0.1
; #@! TF.FileFunction,Plated,1,2,PTH
FMAT,2
METRIC
; #@! TA.AperFunction,Plated,PTH,ComponentDrill
T1C0.750
; #@! TA.AperFunction,Plated,PTH,ComponentDrill
T2C0.800
; #@! TA.AperFunction,Plated,PTH,ComponentDrill
T3C0.813
; #@! TA.AperFunction,Plated,PTH,ComponentDrill
T4C0.900
; #@! TA.AperFunction,Plated,PTH,ComponentDrill
T5C1.000
%
G90
G05
T1
X57.46Y-42.25
X57.5Y-47.0
X58.73Y-42.25
X58.77Y-47.0
X60.0Y-42.25
X60.04Y-47.0
T2
X26.0Y-42.96
X26.0Y-48.04
X33.0Y-28.0
X33.0Y-35.62
X36.5Y-30.46
X36.5Y-35.54
X40.2Y-40.205
X40.2Y-47.825
X42.74Y-40.205
X42.74Y-47.825
X45.28Y-40.205
X45.28Y-47.825
X47.82Y-40.205
X47.82Y-47.825
X51.0Y-30.42
X51.0Y-35.5
X54.5Y-30.41
X54.5Y-35.49
X66.75Y-41.25
X66.75Y-43.25
X66.75Y-47.0
X66.75Y-49.0
X68.0Y-30.37
X68.0Y-35.45
T3
X30.5Y-38.19
X30.5Y-45.81
X33.5Y-42.455
X33.5Y-50.075
X51.34Y-40.63
X51.34Y-48.25
X72.19Y-24.25
X72.25Y-34.25
X79.81Y-24.25
X79.87Y-34.25
T4
X76.25Y-27.96
X76.25Y-30.5
X76.25Y-37.96
X76.25Y-40.5
X76.25Y-45.21
X76.25Y-47.75
T5
X22.5Y-54.96
X22.5Y-57.5
X25.04Y-54.96
X25.04Y-57.5
X27.58Y-54.96
X27.58Y-57.5
X30.12Y-54.96
X30.12Y-57.5
X35.0Y-54.96
X35.0Y-57.5
X37.54Y-54.96
X37.54Y-57.5
X40.08Y-54.96
X40.08Y-57.5
X42.62Y-54.96
X42.62Y-57.5
X47.5Y-54.96
X47.5Y-57.5
X50.04Y-54.96
X50.04Y-57.5
X52.58Y-54.96
X52.58Y-57.5
X55.12Y-54.96
X55.12Y-57.5
X60.0Y-54.96
X60.0Y-57.5
X62.54Y-54.96
X62.54Y-57.5
X65.08Y-54.96
X65.08Y-57.5
X67.62Y-54.96
X67.62Y-57.5
X72.0Y-54.96
X72.0Y-57.5
X74.54Y-54.96
X74.54Y-57.5
X77.08Y-54.96
X77.08Y-57.5
X79.62Y-54.96
X79.62Y-57.5
T5
G00X21.425Y-30.7
M15
G01X21.425Y-31.3
M16
G05
G00X25.825Y-28.0
M15
G01X26.425Y-28.0
M16
G05
G00X25.825Y-34.0
M15
G01X26.425Y-34.0
M16
G05
M30
