%TF.GenerationSoftware,KiCad,Pcbnew,9.0.1*%
%TF.CreationDate,2025-08-22T12:00:28+01:00*%
%TF.ProjectId,FM_DRUM_MACHINE_POWERIN,464d5f44-5255-44d5-9f4d-414348494e45,rev?*%
%TF.SameCoordinates,Original*%
%TF.FileFunction,Copper,L2,Bot*%
%TF.FilePolarity,Positive*%
%FSLAX46Y46*%
G04 Gerber Fmt 4.6, Leading zero omitted, Abs format (unit mm)*
G04 Created by KiCad (PCBNEW 9.0.1) date 2025-08-22 12:00:28*
%MOMM*%
%LPD*%
G01*
G04 APERTURE LIST*
%TA.AperFunction,ComponentPad*%
%ADD10C,1.397000*%
%TD*%
%TA.AperFunction,ComponentPad*%
%ADD11R,1.800000X1.800000*%
%TD*%
%TA.AperFunction,ComponentPad*%
%ADD12C,1.800000*%
%TD*%
%TA.AperFunction,ComponentPad*%
%ADD13C,1.600000*%
%TD*%
%TA.AperFunction,ComponentPad*%
%ADD14R,1.700000X1.700000*%
%TD*%
%TA.AperFunction,ComponentPad*%
%ADD15C,1.700000*%
%TD*%
%TA.AperFunction,ComponentPad*%
%ADD16O,3.016000X1.508000*%
%TD*%
%TA.AperFunction,ComponentPad*%
%ADD17O,1.508000X3.016000*%
%TD*%
%TA.AperFunction,ComponentPad*%
%ADD18R,1.050000X1.500000*%
%TD*%
%TA.AperFunction,ComponentPad*%
%ADD19O,1.050000X1.500000*%
%TD*%
%TA.AperFunction,ComponentPad*%
%ADD20R,1.600000X1.600000*%
%TD*%
%TA.AperFunction,ComponentPad*%
%ADD21R,2.000000X2.000000*%
%TD*%
%TA.AperFunction,ComponentPad*%
%ADD22O,2.000000X2.000000*%
%TD*%
%TA.AperFunction,ComponentPad*%
%ADD23R,1.600000X2.400000*%
%TD*%
%TA.AperFunction,ComponentPad*%
%ADD24O,1.600000X2.400000*%
%TD*%
%TA.AperFunction,Conductor*%
%ADD25C,0.500000*%
%TD*%
G04 APERTURE END LIST*
D10*
%TO.P,R5,1*%
%TO.N,Net-(D3-A)*%
X79870000Y-34250000D03*
%TO.P,R5,2*%
%TO.N,5V*%
X72250000Y-34250000D03*
%TD*%
%TO.P,R4,1*%
%TO.N,Net-(D2-A)*%
X79810000Y-24250000D03*
%TO.P,R4,2*%
%TO.N,12V*%
X72190000Y-24250000D03*
%TD*%
D11*
%TO.P,D4,1,K*%
%TO.N,GND*%
X76250000Y-47750000D03*
D12*
%TO.P,D4,2,A*%
%TO.N,3.3V*%
X76250000Y-45210000D03*
%TD*%
D11*
%TO.P,D3,1,K*%
%TO.N,GND*%
X76250000Y-40500000D03*
D12*
%TO.P,D3,2,A*%
%TO.N,Net-(D3-A)*%
X76250000Y-37960000D03*
%TD*%
D11*
%TO.P,D2,1,K*%
%TO.N,GND*%
X76250000Y-30500000D03*
D12*
%TO.P,D2,2,A*%
%TO.N,Net-(D2-A)*%
X76250000Y-27960000D03*
%TD*%
D13*
%TO.P,C5,1*%
%TO.N,GND*%
X26000000Y-42960000D03*
%TO.P,C5,2*%
%TO.N,Net-(U1A-+)*%
X26000000Y-48040000D03*
%TD*%
D10*
%TO.P,R1,1*%
%TO.N,12V*%
X30500000Y-38190000D03*
%TO.P,R1,2*%
%TO.N,Net-(U1A-+)*%
X30500000Y-45810000D03*
%TD*%
D13*
%TO.P,C4,1*%
%TO.N,GND*%
X68000000Y-35450000D03*
%TO.P,C4,2*%
%TO.N,3.3V*%
X68000000Y-30370000D03*
%TD*%
D14*
%TO.P,J5,1,Pin_1*%
%TO.N,GND*%
X60000000Y-54960000D03*
D15*
%TO.P,J5,2,Pin_2*%
X62540000Y-54960000D03*
%TO.P,J5,3,Pin_3*%
X65080000Y-54960000D03*
%TO.P,J5,4,Pin_4*%
X67620000Y-54960000D03*
%TD*%
D16*
%TO.P,J1,1*%
%TO.N,GND*%
X26125000Y-34000000D03*
%TO.P,J1,2*%
%TO.N,12V*%
X26125000Y-28000000D03*
D17*
%TO.P,J1,3*%
X21425000Y-31000000D03*
%TD*%
D14*
%TO.P,J6,1,Pin_1*%
%TO.N,VGND*%
X72000000Y-54960000D03*
D15*
%TO.P,J6,2,Pin_2*%
X74540000Y-54960000D03*
%TO.P,J6,3,Pin_3*%
X77080000Y-54960000D03*
%TO.P,J6,4,Pin_4*%
X79620000Y-54960000D03*
%TD*%
D13*
%TO.P,C1,1*%
%TO.N,GND*%
X36500000Y-30460000D03*
%TO.P,C1,2*%
%TO.N,Net-(D1-K)*%
X36500000Y-35540000D03*
%TD*%
D14*
%TO.P,J3,1,Pin_1*%
%TO.N,5V*%
X35000000Y-54960000D03*
D15*
%TO.P,J3,2,Pin_2*%
X37540000Y-54960000D03*
%TO.P,J3,3,Pin_3*%
X40080000Y-54960000D03*
%TO.P,J3,4,Pin_4*%
X42620000Y-54960000D03*
%TD*%
D18*
%TO.P,Q1,1,C*%
%TO.N,12V*%
X57460000Y-42250000D03*
D19*
%TO.P,Q1,2,B*%
%TO.N,Net-(Q1-B)*%
X58730000Y-42250000D03*
%TO.P,Q1,3,E*%
%TO.N,Net-(Q1-E)*%
X60000000Y-42250000D03*
%TD*%
D13*
%TO.P,C2,1*%
%TO.N,GND*%
X51000000Y-35500000D03*
%TO.P,C2,2*%
%TO.N,5V*%
X51000000Y-30420000D03*
%TD*%
D20*
%TO.P,C6,1*%
%TO.N,12V*%
X66750000Y-41250000D03*
D13*
%TO.P,C6,2*%
%TO.N,Net-(Q1-E)*%
X66750000Y-43250000D03*
%TD*%
D14*
%TO.P,J6,1,Pin_1*%
%TO.N,VGND*%
X72000000Y-57500000D03*
D15*
%TO.P,J6,2,Pin_2*%
X74540000Y-57500000D03*
%TO.P,J6,3,Pin_3*%
X77080000Y-57500000D03*
%TO.P,J6,4,Pin_4*%
X79620000Y-57500000D03*
%TD*%
D14*
%TO.P,J3,1,Pin_1*%
%TO.N,5V*%
X35000000Y-57500000D03*
D15*
%TO.P,J3,2,Pin_2*%
X37540000Y-57500000D03*
%TO.P,J3,3,Pin_3*%
X40080000Y-57500000D03*
%TO.P,J3,4,Pin_4*%
X42620000Y-57500000D03*
%TD*%
D14*
%TO.P,J4,1,Pin_1*%
%TO.N,3.3V*%
X47500000Y-57500000D03*
D15*
%TO.P,J4,2,Pin_2*%
X50040000Y-57500000D03*
%TO.P,J4,3,Pin_3*%
X52580000Y-57500000D03*
%TO.P,J4,4,Pin_4*%
X55120000Y-57500000D03*
%TD*%
D13*
%TO.P,C3,1*%
%TO.N,GND*%
X54500000Y-35490000D03*
%TO.P,C3,2*%
%TO.N,5V*%
X54500000Y-30410000D03*
%TD*%
D21*
%TO.P,D1,1,K*%
%TO.N,Net-(D1-K)*%
X33000000Y-35620000D03*
D22*
%TO.P,D1,2,A*%
%TO.N,12V*%
X33000000Y-28000000D03*
%TD*%
D10*
%TO.P,R2,1*%
%TO.N,Net-(U1A-+)*%
X33500000Y-42455000D03*
%TO.P,R2,2*%
%TO.N,GND*%
X33500000Y-50075000D03*
%TD*%
%TO.P,R3,1*%
%TO.N,Net-(Q1-B)*%
X51340000Y-48250000D03*
%TO.P,R3,2*%
%TO.N,Net-(Q1-E)*%
X51340000Y-40630000D03*
%TD*%
D14*
%TO.P,J5,1,Pin_1*%
%TO.N,GND*%
X60000000Y-57500000D03*
D15*
%TO.P,J5,2,Pin_2*%
X62540000Y-57500000D03*
%TO.P,J5,3,Pin_3*%
X65080000Y-57500000D03*
%TO.P,J5,4,Pin_4*%
X67620000Y-57500000D03*
%TD*%
D14*
%TO.P,J2,1,Pin_1*%
%TO.N,12V*%
X22500000Y-54960000D03*
D15*
%TO.P,J2,2,Pin_2*%
X25040000Y-54960000D03*
%TO.P,J2,3,Pin_3*%
X27580000Y-54960000D03*
%TO.P,J2,4,Pin_4*%
X30120000Y-54960000D03*
%TD*%
D18*
%TO.P,Q2,1,C*%
%TO.N,GND*%
X57500000Y-47000000D03*
D19*
%TO.P,Q2,2,B*%
%TO.N,Net-(Q1-B)*%
X58770000Y-47000000D03*
%TO.P,Q2,3,E*%
%TO.N,Net-(Q1-E)*%
X60040000Y-47000000D03*
%TD*%
D23*
%TO.P,U1,1*%
%TO.N,Net-(Q1-B)*%
X40200000Y-47825000D03*
D24*
%TO.P,U1,2,-*%
%TO.N,Net-(Q1-E)*%
X42740000Y-47825000D03*
%TO.P,U1,3,+*%
%TO.N,Net-(U1A-+)*%
X45280000Y-47825000D03*
%TO.P,U1,4,V-*%
%TO.N,GND*%
X47820000Y-47825000D03*
%TO.P,U1,5,+*%
%TO.N,Net-(Q1-E)*%
X47820000Y-40205000D03*
%TO.P,U1,6,-*%
%TO.N,VGND*%
X45280000Y-40205000D03*
%TO.P,U1,7*%
X42740000Y-40205000D03*
%TO.P,U1,8,V+*%
%TO.N,12V*%
X40200000Y-40205000D03*
%TD*%
D14*
%TO.P,J4,1,Pin_1*%
%TO.N,3.3V*%
X47500000Y-54960000D03*
D15*
%TO.P,J4,2,Pin_2*%
X50040000Y-54960000D03*
%TO.P,J4,3,Pin_3*%
X52580000Y-54960000D03*
%TO.P,J4,4,Pin_4*%
X55120000Y-54960000D03*
%TD*%
D20*
%TO.P,C7,1*%
%TO.N,Net-(Q1-E)*%
X66750000Y-47000000D03*
D13*
%TO.P,C7,2*%
%TO.N,GND*%
X66750000Y-49000000D03*
%TD*%
D14*
%TO.P,J2,1,Pin_1*%
%TO.N,12V*%
X22500000Y-57500000D03*
D15*
%TO.P,J2,2,Pin_2*%
X25040000Y-57500000D03*
%TO.P,J2,3,Pin_3*%
X27580000Y-57500000D03*
%TO.P,J2,4,Pin_4*%
X30120000Y-57500000D03*
%TD*%
D25*
%TO.N,12V*%
X30500000Y-38190000D02*
X30500000Y-32375000D01*
X30500000Y-32375000D02*
X26125000Y-28000000D01*
%TO.N,Net-(Q1-E)*%
X43750000Y-46000000D02*
X46500000Y-46000000D01*
X42740000Y-47825000D02*
X42740000Y-47010000D01*
X47820000Y-44680000D02*
X47820000Y-40205000D01*
X42740000Y-47010000D02*
X43750000Y-46000000D01*
X46500000Y-46000000D02*
X47820000Y-44680000D01*
%TO.N,VGND*%
X42750000Y-40195000D02*
X42750000Y-38750000D01*
X70250000Y-37750000D02*
X72000000Y-39500000D01*
X42740000Y-40205000D02*
X42750000Y-40195000D01*
X42750000Y-38750000D02*
X43750000Y-37750000D01*
X72000000Y-39500000D02*
X72000000Y-54960000D01*
X43750000Y-37750000D02*
X70250000Y-37750000D01*
%TD*%
%TA.AperFunction,Conductor*%
%TO.N,GND*%
G36*
X62074075Y-55152993D02*
G01*
X62139901Y-55267007D01*
X62232993Y-55360099D01*
X62347007Y-55425925D01*
X62410590Y-55442962D01*
X61778282Y-56075269D01*
X61778282Y-56075270D01*
X61832452Y-56114626D01*
X61842048Y-56119516D01*
X61892844Y-56167491D01*
X61909638Y-56235312D01*
X61887100Y-56301447D01*
X61842051Y-56340483D01*
X61832440Y-56345380D01*
X61778282Y-56384727D01*
X61778282Y-56384728D01*
X62410591Y-57017037D01*
X62347007Y-57034075D01*
X62232993Y-57099901D01*
X62139901Y-57192993D01*
X62074075Y-57307007D01*
X62057037Y-57370591D01*
X61387642Y-56701196D01*
X61354157Y-56639873D01*
X61355077Y-56625166D01*
X61352501Y-56625444D01*
X61343596Y-56542619D01*
X61293354Y-56407913D01*
X61293352Y-56407910D01*
X61215798Y-56304312D01*
X61208829Y-56285628D01*
X61197443Y-56269259D01*
X61196869Y-56253564D01*
X61191380Y-56238848D01*
X61195618Y-56219362D01*
X61194890Y-56199436D01*
X61204182Y-56179993D01*
X61206231Y-56170574D01*
X61208369Y-56166817D01*
X61317968Y-55981739D01*
X61354319Y-55819390D01*
X61354682Y-55818734D01*
X61354642Y-55817984D01*
X61387642Y-55758802D01*
X62057037Y-55089408D01*
X62074075Y-55152993D01*
G37*
%TD.AperFunction*%
%TA.AperFunction,Conductor*%
G36*
X64614075Y-55152993D02*
G01*
X64679901Y-55267007D01*
X64772993Y-55360099D01*
X64887007Y-55425925D01*
X64950590Y-55442962D01*
X64318282Y-56075269D01*
X64318282Y-56075270D01*
X64372452Y-56114626D01*
X64382048Y-56119516D01*
X64432844Y-56167491D01*
X64449638Y-56235312D01*
X64427100Y-56301447D01*
X64382051Y-56340483D01*
X64372440Y-56345380D01*
X64318282Y-56384727D01*
X64318282Y-56384728D01*
X64950591Y-57017037D01*
X64887007Y-57034075D01*
X64772993Y-57099901D01*
X64679901Y-57192993D01*
X64614075Y-57307007D01*
X64597037Y-57370591D01*
X63964728Y-56738282D01*
X63964727Y-56738282D01*
X63925380Y-56792440D01*
X63920483Y-56802051D01*
X63872506Y-56852845D01*
X63804684Y-56869638D01*
X63738550Y-56847098D01*
X63699516Y-56802048D01*
X63694626Y-56792452D01*
X63655270Y-56738282D01*
X63655269Y-56738282D01*
X63022962Y-57370590D01*
X63005925Y-57307007D01*
X62940099Y-57192993D01*
X62847007Y-57099901D01*
X62732993Y-57034075D01*
X62669409Y-57017037D01*
X63301716Y-56384728D01*
X63247550Y-56345375D01*
X63237954Y-56340486D01*
X63187157Y-56292512D01*
X63170361Y-56224692D01*
X63191288Y-56160895D01*
X63270027Y-56043581D01*
X62669408Y-55442962D01*
X62732993Y-55425925D01*
X62847007Y-55360099D01*
X62940099Y-55267007D01*
X63005925Y-55152993D01*
X63022962Y-55089408D01*
X63655270Y-55721717D01*
X63655270Y-55721716D01*
X63694622Y-55667554D01*
X63699514Y-55657954D01*
X63747488Y-55607157D01*
X63815308Y-55590361D01*
X63881444Y-55612897D01*
X63920486Y-55657954D01*
X63925375Y-55667550D01*
X63964728Y-55721716D01*
X64597037Y-55089408D01*
X64614075Y-55152993D01*
G37*
%TD.AperFunction*%
%TA.AperFunction,Conductor*%
G36*
X67154075Y-55152993D02*
G01*
X67219901Y-55267007D01*
X67312993Y-55360099D01*
X67427007Y-55425925D01*
X67490590Y-55442962D01*
X66858282Y-56075269D01*
X66858282Y-56075270D01*
X66912452Y-56114626D01*
X66922048Y-56119516D01*
X66972844Y-56167491D01*
X66989638Y-56235312D01*
X66967100Y-56301447D01*
X66922051Y-56340483D01*
X66912440Y-56345380D01*
X66858282Y-56384727D01*
X66858282Y-56384728D01*
X67490591Y-57017037D01*
X67427007Y-57034075D01*
X67312993Y-57099901D01*
X67219901Y-57192993D01*
X67154075Y-57307007D01*
X67137037Y-57370591D01*
X66504728Y-56738282D01*
X66504727Y-56738282D01*
X66465380Y-56792440D01*
X66460483Y-56802051D01*
X66412506Y-56852845D01*
X66344684Y-56869638D01*
X66278550Y-56847098D01*
X66239516Y-56802048D01*
X66234626Y-56792452D01*
X66195270Y-56738282D01*
X66195269Y-56738282D01*
X65562962Y-57370590D01*
X65545925Y-57307007D01*
X65480099Y-57192993D01*
X65387007Y-57099901D01*
X65272993Y-57034075D01*
X65209409Y-57017037D01*
X65841716Y-56384728D01*
X65787550Y-56345375D01*
X65777954Y-56340486D01*
X65727157Y-56292512D01*
X65710361Y-56224692D01*
X65731288Y-56160895D01*
X65810027Y-56043581D01*
X65209408Y-55442962D01*
X65272993Y-55425925D01*
X65387007Y-55360099D01*
X65480099Y-55267007D01*
X65545925Y-55152993D01*
X65562962Y-55089408D01*
X66195270Y-55721717D01*
X66195270Y-55721716D01*
X66234622Y-55667554D01*
X66239514Y-55657954D01*
X66287488Y-55607157D01*
X66355308Y-55590361D01*
X66421444Y-55612897D01*
X66460486Y-55657954D01*
X66465375Y-55667550D01*
X66504728Y-55721716D01*
X67137037Y-55089408D01*
X67154075Y-55152993D01*
G37*
%TD.AperFunction*%
%TA.AperFunction,Conductor*%
G36*
X60250000Y-57066988D02*
G01*
X60192993Y-57034075D01*
X60065826Y-57000000D01*
X59934174Y-57000000D01*
X59807007Y-57034075D01*
X59750000Y-57066988D01*
X59750000Y-55393012D01*
X59807007Y-55425925D01*
X59934174Y-55460000D01*
X60065826Y-55460000D01*
X60192993Y-55425925D01*
X60250000Y-55393012D01*
X60250000Y-57066988D01*
G37*
%TD.AperFunction*%
%TA.AperFunction,Conductor*%
G36*
X81442539Y-20520185D02*
G01*
X81488294Y-20572989D01*
X81499500Y-20624500D01*
X81499500Y-59375500D01*
X81479815Y-59442539D01*
X81427011Y-59488294D01*
X81375500Y-59499500D01*
X20624500Y-59499500D01*
X20557461Y-59479815D01*
X20511706Y-59427011D01*
X20500500Y-59375500D01*
X20500500Y-54062135D01*
X21149500Y-54062135D01*
X21149500Y-55857870D01*
X21149501Y-55857876D01*
X21155908Y-55917483D01*
X21206202Y-56052328D01*
X21206203Y-56052330D01*
X21283578Y-56155689D01*
X21307995Y-56221153D01*
X21293144Y-56289426D01*
X21283578Y-56304311D01*
X21206203Y-56407669D01*
X21206202Y-56407671D01*
X21155908Y-56542517D01*
X21149501Y-56602116D01*
X21149500Y-56602135D01*
X21149500Y-58397870D01*
X21149501Y-58397876D01*
X21155908Y-58457483D01*
X21206202Y-58592328D01*
X21206206Y-58592335D01*
X21292452Y-58707544D01*
X21292455Y-58707547D01*
X21407664Y-58793793D01*
X21407671Y-58793797D01*
X21542517Y-58844091D01*
X21542516Y-58844091D01*
X21549444Y-58844835D01*
X21602127Y-58850500D01*
X23397872Y-58850499D01*
X23457483Y-58844091D01*
X23592331Y-58793796D01*
X23707546Y-58707546D01*
X23793796Y-58592331D01*
X23842810Y-58460916D01*
X23884681Y-58404984D01*
X23950145Y-58380566D01*
X24018418Y-58395417D01*
X24046673Y-58416569D01*
X24160213Y-58530109D01*
X24332179Y-58655048D01*
X24332181Y-58655049D01*
X24332184Y-58655051D01*
X24521588Y-58751557D01*
X24723757Y-58817246D01*
X24933713Y-58850500D01*
X24933714Y-58850500D01*
X25146286Y-58850500D01*
X25146287Y-58850500D01*
X25356243Y-58817246D01*
X25558412Y-58751557D01*
X25747816Y-58655051D01*
X25834138Y-58592335D01*
X25919786Y-58530109D01*
X25919788Y-58530106D01*
X25919792Y-58530104D01*
X26070104Y-58379792D01*
X26070106Y-58379788D01*
X26070109Y-58379786D01*
X26195048Y-58207820D01*
X26195047Y-58207820D01*
X26195051Y-58207816D01*
X26199514Y-58199054D01*
X26247488Y-58148259D01*
X26315308Y-58131463D01*
X26381444Y-58153999D01*
X26420486Y-58199056D01*
X26424951Y-58207820D01*
X26549890Y-58379786D01*
X26700213Y-58530109D01*
X26872179Y-58655048D01*
X26872181Y-58655049D01*
X26872184Y-58655051D01*
X27061588Y-58751557D01*
X27263757Y-58817246D01*
X27473713Y-58850500D01*
X27473714Y-58850500D01*
X27686286Y-58850500D01*
X27686287Y-58850500D01*
X27896243Y-58817246D01*
X28098412Y-58751557D01*
X28287816Y-58655051D01*
X28374138Y-58592335D01*
X28459786Y-58530109D01*
X28459788Y-58530106D01*
X28459792Y-58530104D01*
X28610104Y-58379792D01*
X28610106Y-58379788D01*
X28610109Y-58379786D01*
X28735048Y-58207820D01*
X28735047Y-58207820D01*
X28735051Y-58207816D01*
X28739514Y-58199054D01*
X28787488Y-58148259D01*
X28855308Y-58131463D01*
X28921444Y-58153999D01*
X28960486Y-58199056D01*
X28964951Y-58207820D01*
X29089890Y-58379786D01*
X29240213Y-58530109D01*
X29412179Y-58655048D01*
X29412181Y-58655049D01*
X29412184Y-58655051D01*
X29601588Y-58751557D01*
X29803757Y-58817246D01*
X30013713Y-58850500D01*
X30013714Y-58850500D01*
X30226286Y-58850500D01*
X30226287Y-58850500D01*
X30436243Y-58817246D01*
X30638412Y-58751557D01*
X30827816Y-58655051D01*
X30914138Y-58592335D01*
X30999786Y-58530109D01*
X30999788Y-58530106D01*
X30999792Y-58530104D01*
X31150104Y-58379792D01*
X31150106Y-58379788D01*
X31150109Y-58379786D01*
X31275048Y-58207820D01*
X31275047Y-58207820D01*
X31275051Y-58207816D01*
X31371557Y-58018412D01*
X31437246Y-57816243D01*
X31470500Y-57606287D01*
X31470500Y-57393713D01*
X31437246Y-57183757D01*
X31371557Y-56981588D01*
X31275051Y-56792184D01*
X31275049Y-56792181D01*
X31275048Y-56792179D01*
X31150109Y-56620213D01*
X30999786Y-56469890D01*
X30827820Y-56344951D01*
X30827115Y-56344591D01*
X30819054Y-56340485D01*
X30768259Y-56292512D01*
X30751463Y-56224692D01*
X30773999Y-56158556D01*
X30819054Y-56119515D01*
X30827816Y-56115051D01*
X30882572Y-56075269D01*
X30999786Y-55990109D01*
X30999788Y-55990106D01*
X30999792Y-55990104D01*
X31150104Y-55839792D01*
X31150106Y-55839788D01*
X31150109Y-55839786D01*
X31275048Y-55667820D01*
X31275047Y-55667820D01*
X31275051Y-55667816D01*
X31371557Y-55478412D01*
X31437246Y-55276243D01*
X31470500Y-55066287D01*
X31470500Y-54853713D01*
X31437246Y-54643757D01*
X31371557Y-54441588D01*
X31275051Y-54252184D01*
X31208945Y-54161196D01*
X31187511Y-54131694D01*
X31187508Y-54131691D01*
X31150107Y-54080213D01*
X31150104Y-54080208D01*
X31132031Y-54062135D01*
X33649500Y-54062135D01*
X33649500Y-55857870D01*
X33649501Y-55857876D01*
X33655908Y-55917483D01*
X33706202Y-56052328D01*
X33706203Y-56052330D01*
X33783578Y-56155689D01*
X33807995Y-56221153D01*
X33793144Y-56289426D01*
X33783578Y-56304311D01*
X33706203Y-56407669D01*
X33706202Y-56407671D01*
X33655908Y-56542517D01*
X33649501Y-56602116D01*
X33649500Y-56602135D01*
X33649500Y-58397870D01*
X33649501Y-58397876D01*
X33655908Y-58457483D01*
X33706202Y-58592328D01*
X33706206Y-58592335D01*
X33792452Y-58707544D01*
X33792455Y-58707547D01*
X33907664Y-58793793D01*
X33907671Y-58793797D01*
X34042517Y-58844091D01*
X34042516Y-58844091D01*
X34049444Y-58844835D01*
X34102127Y-58850500D01*
X35897872Y-58850499D01*
X35957483Y-58844091D01*
X36092331Y-58793796D01*
X36207546Y-58707546D01*
X36293796Y-58592331D01*
X36342810Y-58460916D01*
X36384681Y-58404984D01*
X36450145Y-58380566D01*
X36518418Y-58395417D01*
X36546673Y-58416569D01*
X36660213Y-58530109D01*
X36832179Y-58655048D01*
X36832181Y-58655049D01*
X36832184Y-58655051D01*
X37021588Y-58751557D01*
X37223757Y-58817246D01*
X37433713Y-58850500D01*
X37433714Y-58850500D01*
X37646286Y-58850500D01*
X37646287Y-58850500D01*
X37856243Y-58817246D01*
X38058412Y-58751557D01*
X38247816Y-58655051D01*
X38334138Y-58592335D01*
X38419786Y-58530109D01*
X38419788Y-58530106D01*
X38419792Y-58530104D01*
X38570104Y-58379792D01*
X38570106Y-58379788D01*
X38570109Y-58379786D01*
X38695048Y-58207820D01*
X38695047Y-58207820D01*
X38695051Y-58207816D01*
X38699514Y-58199054D01*
X38747488Y-58148259D01*
X38815308Y-58131463D01*
X38881444Y-58153999D01*
X38920486Y-58199056D01*
X38924951Y-58207820D01*
X39049890Y-58379786D01*
X39200213Y-58530109D01*
X39372179Y-58655048D01*
X39372181Y-58655049D01*
X39372184Y-58655051D01*
X39561588Y-58751557D01*
X39763757Y-58817246D01*
X39973713Y-58850500D01*
X39973714Y-58850500D01*
X40186286Y-58850500D01*
X40186287Y-58850500D01*
X40396243Y-58817246D01*
X40598412Y-58751557D01*
X40787816Y-58655051D01*
X40874138Y-58592335D01*
X40959786Y-58530109D01*
X40959788Y-58530106D01*
X40959792Y-58530104D01*
X41110104Y-58379792D01*
X41110106Y-58379788D01*
X41110109Y-58379786D01*
X41235048Y-58207820D01*
X41235047Y-58207820D01*
X41235051Y-58207816D01*
X41239514Y-58199054D01*
X41287488Y-58148259D01*
X41355308Y-58131463D01*
X41421444Y-58153999D01*
X41460486Y-58199056D01*
X41464951Y-58207820D01*
X41589890Y-58379786D01*
X41740213Y-58530109D01*
X41912179Y-58655048D01*
X41912181Y-58655049D01*
X41912184Y-58655051D01*
X42101588Y-58751557D01*
X42303757Y-58817246D01*
X42513713Y-58850500D01*
X42513714Y-58850500D01*
X42726286Y-58850500D01*
X42726287Y-58850500D01*
X42936243Y-58817246D01*
X43138412Y-58751557D01*
X43327816Y-58655051D01*
X43414138Y-58592335D01*
X43499786Y-58530109D01*
X43499788Y-58530106D01*
X43499792Y-58530104D01*
X43650104Y-58379792D01*
X43650106Y-58379788D01*
X43650109Y-58379786D01*
X43775048Y-58207820D01*
X43775047Y-58207820D01*
X43775051Y-58207816D01*
X43871557Y-58018412D01*
X43937246Y-57816243D01*
X43970500Y-57606287D01*
X43970500Y-57393713D01*
X43937246Y-57183757D01*
X43871557Y-56981588D01*
X43775051Y-56792184D01*
X43775049Y-56792181D01*
X43775048Y-56792179D01*
X43650109Y-56620213D01*
X43499786Y-56469890D01*
X43327820Y-56344951D01*
X43327115Y-56344591D01*
X43319054Y-56340485D01*
X43268259Y-56292512D01*
X43251463Y-56224692D01*
X43273999Y-56158556D01*
X43319054Y-56119515D01*
X43327816Y-56115051D01*
X43382572Y-56075269D01*
X43499786Y-55990109D01*
X43499788Y-55990106D01*
X43499792Y-55990104D01*
X43650104Y-55839792D01*
X43650106Y-55839788D01*
X43650109Y-55839786D01*
X43775048Y-55667820D01*
X43775047Y-55667820D01*
X43775051Y-55667816D01*
X43871557Y-55478412D01*
X43937246Y-55276243D01*
X43970500Y-55066287D01*
X43970500Y-54853713D01*
X43937246Y-54643757D01*
X43871557Y-54441588D01*
X43775051Y-54252184D01*
X43708945Y-54161196D01*
X43687511Y-54131694D01*
X43687508Y-54131691D01*
X43650107Y-54080213D01*
X43650104Y-54080208D01*
X43632031Y-54062135D01*
X46149500Y-54062135D01*
X46149500Y-55857870D01*
X46149501Y-55857876D01*
X46155908Y-55917483D01*
X46206202Y-56052328D01*
X46206203Y-56052330D01*
X46283578Y-56155689D01*
X46307995Y-56221153D01*
X46293144Y-56289426D01*
X46283578Y-56304311D01*
X46206203Y-56407669D01*
X46206202Y-56407671D01*
X46155908Y-56542517D01*
X46149501Y-56602116D01*
X46149500Y-56602135D01*
X46149500Y-58397870D01*
X46149501Y-58397876D01*
X46155908Y-58457483D01*
X46206202Y-58592328D01*
X46206206Y-58592335D01*
X46292452Y-58707544D01*
X46292455Y-58707547D01*
X46407664Y-58793793D01*
X46407671Y-58793797D01*
X46542517Y-58844091D01*
X46542516Y-58844091D01*
X46549444Y-58844835D01*
X46602127Y-58850500D01*
X48397872Y-58850499D01*
X48457483Y-58844091D01*
X48592331Y-58793796D01*
X48707546Y-58707546D01*
X48793796Y-58592331D01*
X48842810Y-58460916D01*
X48884681Y-58404984D01*
X48950145Y-58380566D01*
X49018418Y-58395417D01*
X49046673Y-58416569D01*
X49160213Y-58530109D01*
X49332179Y-58655048D01*
X49332181Y-58655049D01*
X49332184Y-58655051D01*
X49521588Y-58751557D01*
X49723757Y-58817246D01*
X49933713Y-58850500D01*
X49933714Y-58850500D01*
X50146286Y-58850500D01*
X50146287Y-58850500D01*
X50356243Y-58817246D01*
X50558412Y-58751557D01*
X50747816Y-58655051D01*
X50834138Y-58592335D01*
X50919786Y-58530109D01*
X50919788Y-58530106D01*
X50919792Y-58530104D01*
X51070104Y-58379792D01*
X51070106Y-58379788D01*
X51070109Y-58379786D01*
X51195048Y-58207820D01*
X51195047Y-58207820D01*
X51195051Y-58207816D01*
X51199514Y-58199054D01*
X51247488Y-58148259D01*
X51315308Y-58131463D01*
X51381444Y-58153999D01*
X51420486Y-58199056D01*
X51424951Y-58207820D01*
X51549890Y-58379786D01*
X51700213Y-58530109D01*
X51872179Y-58655048D01*
X51872181Y-58655049D01*
X51872184Y-58655051D01*
X52061588Y-58751557D01*
X52263757Y-58817246D01*
X52473713Y-58850500D01*
X52473714Y-58850500D01*
X52686286Y-58850500D01*
X52686287Y-58850500D01*
X52896243Y-58817246D01*
X53098412Y-58751557D01*
X53287816Y-58655051D01*
X53374138Y-58592335D01*
X53459786Y-58530109D01*
X53459788Y-58530106D01*
X53459792Y-58530104D01*
X53610104Y-58379792D01*
X53610106Y-58379788D01*
X53610109Y-58379786D01*
X53735048Y-58207820D01*
X53735047Y-58207820D01*
X53735051Y-58207816D01*
X53739514Y-58199054D01*
X53787488Y-58148259D01*
X53855308Y-58131463D01*
X53921444Y-58153999D01*
X53960486Y-58199056D01*
X53964951Y-58207820D01*
X54089890Y-58379786D01*
X54240213Y-58530109D01*
X54412179Y-58655048D01*
X54412181Y-58655049D01*
X54412184Y-58655051D01*
X54601588Y-58751557D01*
X54803757Y-58817246D01*
X55013713Y-58850500D01*
X55013714Y-58850500D01*
X55226286Y-58850500D01*
X55226287Y-58850500D01*
X55436243Y-58817246D01*
X55638412Y-58751557D01*
X55827816Y-58655051D01*
X55914138Y-58592335D01*
X55999786Y-58530109D01*
X55999788Y-58530106D01*
X55999792Y-58530104D01*
X56150104Y-58379792D01*
X56150106Y-58379788D01*
X56150109Y-58379786D01*
X56275048Y-58207820D01*
X56275047Y-58207820D01*
X56275051Y-58207816D01*
X56371557Y-58018412D01*
X56437246Y-57816243D01*
X56470500Y-57606287D01*
X56470500Y-57393713D01*
X56437246Y-57183757D01*
X56371557Y-56981588D01*
X56275051Y-56792184D01*
X56275049Y-56792181D01*
X56275048Y-56792179D01*
X56150109Y-56620213D01*
X55999786Y-56469890D01*
X55827820Y-56344951D01*
X55827115Y-56344591D01*
X55819054Y-56340485D01*
X55768259Y-56292512D01*
X55751463Y-56224692D01*
X55773999Y-56158556D01*
X55819054Y-56119515D01*
X55827816Y-56115051D01*
X55882572Y-56075269D01*
X55999786Y-55990109D01*
X55999788Y-55990106D01*
X55999792Y-55990104D01*
X56150104Y-55839792D01*
X56150106Y-55839788D01*
X56150109Y-55839786D01*
X56275048Y-55667820D01*
X56275047Y-55667820D01*
X56275051Y-55667816D01*
X56371557Y-55478412D01*
X56437246Y-55276243D01*
X56470500Y-55066287D01*
X56470500Y-54853713D01*
X56437246Y-54643757D01*
X56371557Y-54441588D01*
X56275051Y-54252184D01*
X56275049Y-54252181D01*
X56275048Y-54252179D01*
X56187542Y-54131736D01*
X56150109Y-54080214D01*
X56150105Y-54080209D01*
X56132051Y-54062155D01*
X58650000Y-54062155D01*
X58650000Y-54710000D01*
X59566988Y-54710000D01*
X59534075Y-54767007D01*
X59500000Y-54894174D01*
X59500000Y-55025826D01*
X59534075Y-55152993D01*
X59566988Y-55210000D01*
X58650000Y-55210000D01*
X58650000Y-55857844D01*
X58656401Y-55917372D01*
X58656403Y-55917379D01*
X58706645Y-56052086D01*
X58706647Y-56052088D01*
X58784202Y-56155689D01*
X58808619Y-56221153D01*
X58793768Y-56289426D01*
X58784202Y-56304311D01*
X58706647Y-56407911D01*
X58706645Y-56407913D01*
X58656403Y-56542620D01*
X58656401Y-56542627D01*
X58650000Y-56602155D01*
X58650000Y-57250000D01*
X59566988Y-57250000D01*
X59534075Y-57307007D01*
X59500000Y-57434174D01*
X59500000Y-57565826D01*
X59534075Y-57692993D01*
X59566988Y-57750000D01*
X58650000Y-57750000D01*
X58650000Y-58397844D01*
X58656401Y-58457372D01*
X58656403Y-58457379D01*
X58706645Y-58592086D01*
X58706649Y-58592093D01*
X58792809Y-58707187D01*
X58792812Y-58707190D01*
X58907906Y-58793350D01*
X58907913Y-58793354D01*
X59042620Y-58843596D01*
X59042627Y-58843598D01*
X59102155Y-58849999D01*
X59102172Y-58850000D01*
X59750000Y-58850000D01*
X59750000Y-57933012D01*
X59807007Y-57965925D01*
X59934174Y-58000000D01*
X60065826Y-58000000D01*
X60192993Y-57965925D01*
X60250000Y-57933012D01*
X60250000Y-58850000D01*
X60897828Y-58850000D01*
X60897844Y-58849999D01*
X60957372Y-58843598D01*
X60957379Y-58843596D01*
X61092086Y-58793354D01*
X61092093Y-58793350D01*
X61207187Y-58707190D01*
X61207190Y-58707187D01*
X61293350Y-58592093D01*
X61293354Y-58592086D01*
X61315529Y-58532632D01*
X61354319Y-58359390D01*
X61354682Y-58358734D01*
X61354642Y-58357984D01*
X61387642Y-58298802D01*
X62057037Y-57629408D01*
X62074075Y-57692993D01*
X62139901Y-57807007D01*
X62232993Y-57900099D01*
X62347007Y-57965925D01*
X62410590Y-57982962D01*
X61778282Y-58615269D01*
X61778282Y-58615270D01*
X61832449Y-58654624D01*
X62021782Y-58751095D01*
X62223870Y-58816757D01*
X62433754Y-58850000D01*
X62646246Y-58850000D01*
X62856127Y-58816757D01*
X62856130Y-58816757D01*
X63058217Y-58751095D01*
X63247554Y-58654622D01*
X63301716Y-58615270D01*
X63301717Y-58615270D01*
X62669408Y-57982962D01*
X62732993Y-57965925D01*
X62847007Y-57900099D01*
X62940099Y-57807007D01*
X63005925Y-57692993D01*
X63022962Y-57629408D01*
X63655270Y-58261717D01*
X63655270Y-58261716D01*
X63694622Y-58207554D01*
X63699514Y-58197954D01*
X63747488Y-58147157D01*
X63815308Y-58130361D01*
X63881444Y-58152897D01*
X63920486Y-58197954D01*
X63925375Y-58207550D01*
X63964728Y-58261716D01*
X64597037Y-57629408D01*
X64614075Y-57692993D01*
X64679901Y-57807007D01*
X64772993Y-57900099D01*
X64887007Y-57965925D01*
X64950590Y-57982962D01*
X64318282Y-58615269D01*
X64318282Y-58615270D01*
X64372449Y-58654624D01*
X64561782Y-58751095D01*
X64763870Y-58816757D01*
X64973754Y-58850000D01*
X65186246Y-58850000D01*
X65396127Y-58816757D01*
X65396130Y-58816757D01*
X65598217Y-58751095D01*
X65787554Y-58654622D01*
X65841716Y-58615270D01*
X65841717Y-58615270D01*
X65209408Y-57982962D01*
X65272993Y-57965925D01*
X65387007Y-57900099D01*
X65480099Y-57807007D01*
X65545925Y-57692993D01*
X65562962Y-57629408D01*
X66195270Y-58261717D01*
X66195270Y-58261716D01*
X66234622Y-58207554D01*
X66239514Y-58197954D01*
X66287488Y-58147157D01*
X66355308Y-58130361D01*
X66421444Y-58152897D01*
X66460486Y-58197954D01*
X66465375Y-58207550D01*
X66504728Y-58261716D01*
X67137037Y-57629408D01*
X67154075Y-57692993D01*
X67219901Y-57807007D01*
X67312993Y-57900099D01*
X67427007Y-57965925D01*
X67490590Y-57982962D01*
X66858282Y-58615269D01*
X66858282Y-58615270D01*
X66912449Y-58654624D01*
X67101782Y-58751095D01*
X67303870Y-58816757D01*
X67513754Y-58850000D01*
X67726246Y-58850000D01*
X67936127Y-58816757D01*
X67936130Y-58816757D01*
X68138217Y-58751095D01*
X68327554Y-58654622D01*
X68381716Y-58615270D01*
X68381717Y-58615270D01*
X67749408Y-57982962D01*
X67812993Y-57965925D01*
X67927007Y-57900099D01*
X68020099Y-57807007D01*
X68085925Y-57692993D01*
X68102962Y-57629408D01*
X68735270Y-58261717D01*
X68735270Y-58261716D01*
X68774622Y-58207554D01*
X68871095Y-58018217D01*
X68936757Y-57816130D01*
X68936757Y-57816127D01*
X68970000Y-57606246D01*
X68970000Y-57393753D01*
X68936757Y-57183872D01*
X68936757Y-57183869D01*
X68871095Y-56981782D01*
X68774624Y-56792449D01*
X68735270Y-56738282D01*
X68735269Y-56738282D01*
X68102962Y-57370590D01*
X68085925Y-57307007D01*
X68020099Y-57192993D01*
X67927007Y-57099901D01*
X67812993Y-57034075D01*
X67749409Y-57017037D01*
X68381716Y-56384728D01*
X68327550Y-56345375D01*
X68317954Y-56340486D01*
X68267157Y-56292512D01*
X68250361Y-56224692D01*
X68272897Y-56158556D01*
X68317954Y-56119514D01*
X68327554Y-56114622D01*
X68381716Y-56075270D01*
X68381717Y-56075270D01*
X67749408Y-55442962D01*
X67812993Y-55425925D01*
X67927007Y-55360099D01*
X68020099Y-55267007D01*
X68085925Y-55152993D01*
X68102962Y-55089408D01*
X68735270Y-55721717D01*
X68735270Y-55721716D01*
X68774622Y-55667554D01*
X68871095Y-55478217D01*
X68936757Y-55276130D01*
X68936757Y-55276127D01*
X68970000Y-55066246D01*
X68970000Y-54853753D01*
X68936757Y-54643872D01*
X68936757Y-54643869D01*
X68871095Y-54441782D01*
X68774624Y-54252449D01*
X68735270Y-54198282D01*
X68735269Y-54198282D01*
X68102962Y-54830590D01*
X68085925Y-54767007D01*
X68020099Y-54652993D01*
X67927007Y-54559901D01*
X67812993Y-54494075D01*
X67749409Y-54477037D01*
X68381716Y-53844728D01*
X68327550Y-53805375D01*
X68138217Y-53708904D01*
X67936129Y-53643242D01*
X67726246Y-53610000D01*
X67513754Y-53610000D01*
X67303872Y-53643242D01*
X67303869Y-53643242D01*
X67101782Y-53708904D01*
X66912439Y-53805380D01*
X66858282Y-53844727D01*
X66858282Y-53844728D01*
X67490591Y-54477037D01*
X67427007Y-54494075D01*
X67312993Y-54559901D01*
X67219901Y-54652993D01*
X67154075Y-54767007D01*
X67137037Y-54830591D01*
X66504728Y-54198282D01*
X66504727Y-54198282D01*
X66465380Y-54252440D01*
X66460483Y-54262051D01*
X66412506Y-54312845D01*
X66344684Y-54329638D01*
X66278550Y-54307098D01*
X66239516Y-54262048D01*
X66234626Y-54252452D01*
X66195270Y-54198282D01*
X66195269Y-54198282D01*
X65562962Y-54830590D01*
X65545925Y-54767007D01*
X65480099Y-54652993D01*
X65387007Y-54559901D01*
X65272993Y-54494075D01*
X65209409Y-54477037D01*
X65841716Y-53844728D01*
X65787550Y-53805375D01*
X65598217Y-53708904D01*
X65396129Y-53643242D01*
X65186246Y-53610000D01*
X64973754Y-53610000D01*
X64763872Y-53643242D01*
X64763869Y-53643242D01*
X64561782Y-53708904D01*
X64372439Y-53805380D01*
X64318282Y-53844727D01*
X64318282Y-53844728D01*
X64950591Y-54477037D01*
X64887007Y-54494075D01*
X64772993Y-54559901D01*
X64679901Y-54652993D01*
X64614075Y-54767007D01*
X64597037Y-54830591D01*
X63964728Y-54198282D01*
X63964727Y-54198282D01*
X63925380Y-54252440D01*
X63920483Y-54262051D01*
X63872506Y-54312845D01*
X63804684Y-54329638D01*
X63738550Y-54307098D01*
X63699516Y-54262048D01*
X63694626Y-54252452D01*
X63655270Y-54198282D01*
X63655269Y-54198282D01*
X63022962Y-54830590D01*
X63005925Y-54767007D01*
X62940099Y-54652993D01*
X62847007Y-54559901D01*
X62732993Y-54494075D01*
X62669409Y-54477037D01*
X63301716Y-53844728D01*
X63247550Y-53805375D01*
X63058217Y-53708904D01*
X62856129Y-53643242D01*
X62646246Y-53610000D01*
X62433754Y-53610000D01*
X62223872Y-53643242D01*
X62223869Y-53643242D01*
X62021782Y-53708904D01*
X61832439Y-53805380D01*
X61778282Y-53844727D01*
X61778282Y-53844728D01*
X62410591Y-54477037D01*
X62347007Y-54494075D01*
X62232993Y-54559901D01*
X62139901Y-54652993D01*
X62074075Y-54767007D01*
X62057037Y-54830591D01*
X61387642Y-54161196D01*
X61354319Y-54100609D01*
X61315527Y-53927364D01*
X61293354Y-53867913D01*
X61293350Y-53867906D01*
X61207190Y-53752812D01*
X61207187Y-53752809D01*
X61092093Y-53666649D01*
X61092086Y-53666645D01*
X60957379Y-53616403D01*
X60957372Y-53616401D01*
X60897844Y-53610000D01*
X60250000Y-53610000D01*
X60250000Y-54526988D01*
X60192993Y-54494075D01*
X60065826Y-54460000D01*
X59934174Y-54460000D01*
X59807007Y-54494075D01*
X59750000Y-54526988D01*
X59750000Y-53610000D01*
X59102155Y-53610000D01*
X59042627Y-53616401D01*
X59042620Y-53616403D01*
X58907913Y-53666645D01*
X58907906Y-53666649D01*
X58792812Y-53752809D01*
X58792809Y-53752812D01*
X58706649Y-53867906D01*
X58706645Y-53867913D01*
X58656403Y-54002620D01*
X58656401Y-54002627D01*
X58650000Y-54062155D01*
X56132051Y-54062155D01*
X55999786Y-53929890D01*
X55827820Y-53804951D01*
X55638414Y-53708444D01*
X55638413Y-53708443D01*
X55638412Y-53708443D01*
X55436243Y-53642754D01*
X55436241Y-53642753D01*
X55436240Y-53642753D01*
X55274957Y-53617208D01*
X55226287Y-53609500D01*
X55013713Y-53609500D01*
X54965042Y-53617208D01*
X54803760Y-53642753D01*
X54601585Y-53708444D01*
X54412179Y-53804951D01*
X54240213Y-53929890D01*
X54089890Y-54080213D01*
X53964949Y-54252182D01*
X53960484Y-54260946D01*
X53912509Y-54311742D01*
X53844688Y-54328536D01*
X53778553Y-54305998D01*
X53739516Y-54260946D01*
X53735050Y-54252182D01*
X53610109Y-54080213D01*
X53459786Y-53929890D01*
X53287820Y-53804951D01*
X53098414Y-53708444D01*
X53098413Y-53708443D01*
X53098412Y-53708443D01*
X52896243Y-53642754D01*
X52896241Y-53642753D01*
X52896240Y-53642753D01*
X52734957Y-53617208D01*
X52686287Y-53609500D01*
X52473713Y-53609500D01*
X52425042Y-53617208D01*
X52263760Y-53642753D01*
X52061585Y-53708444D01*
X51872179Y-53804951D01*
X51700213Y-53929890D01*
X51549890Y-54080213D01*
X51424949Y-54252182D01*
X51420484Y-54260946D01*
X51372509Y-54311742D01*
X51304688Y-54328536D01*
X51238553Y-54305998D01*
X51199516Y-54260946D01*
X51195050Y-54252182D01*
X51070109Y-54080213D01*
X50919786Y-53929890D01*
X50747820Y-53804951D01*
X50558414Y-53708444D01*
X50558413Y-53708443D01*
X50558412Y-53708443D01*
X50356243Y-53642754D01*
X50356241Y-53642753D01*
X50356240Y-53642753D01*
X50194957Y-53617208D01*
X50146287Y-53609500D01*
X49933713Y-53609500D01*
X49885042Y-53617208D01*
X49723760Y-53642753D01*
X49521585Y-53708444D01*
X49332179Y-53804951D01*
X49160215Y-53929889D01*
X49046673Y-54043431D01*
X48985350Y-54076915D01*
X48915658Y-54071931D01*
X48859725Y-54030059D01*
X48842810Y-53999082D01*
X48793797Y-53867671D01*
X48793793Y-53867664D01*
X48707547Y-53752455D01*
X48707544Y-53752452D01*
X48592335Y-53666206D01*
X48592328Y-53666202D01*
X48457482Y-53615908D01*
X48457483Y-53615908D01*
X48397883Y-53609501D01*
X48397881Y-53609500D01*
X48397873Y-53609500D01*
X48397864Y-53609500D01*
X46602129Y-53609500D01*
X46602123Y-53609501D01*
X46542516Y-53615908D01*
X46407671Y-53666202D01*
X46407664Y-53666206D01*
X46292455Y-53752452D01*
X46292452Y-53752455D01*
X46206206Y-53867664D01*
X46206202Y-53867671D01*
X46155908Y-54002517D01*
X46149501Y-54062116D01*
X46149500Y-54062135D01*
X43632031Y-54062135D01*
X43499792Y-53929896D01*
X43499786Y-53929890D01*
X43327820Y-53804951D01*
X43138414Y-53708444D01*
X43138413Y-53708443D01*
X43138412Y-53708443D01*
X42936243Y-53642754D01*
X42936241Y-53642753D01*
X42936240Y-53642753D01*
X42774957Y-53617208D01*
X42726287Y-53609500D01*
X42513713Y-53609500D01*
X42465042Y-53617208D01*
X42303760Y-53642753D01*
X42101585Y-53708444D01*
X41912179Y-53804951D01*
X41740213Y-53929890D01*
X41589890Y-54080213D01*
X41464949Y-54252182D01*
X41460484Y-54260946D01*
X41412509Y-54311742D01*
X41344688Y-54328536D01*
X41278553Y-54305998D01*
X41239516Y-54260946D01*
X41235050Y-54252182D01*
X41110109Y-54080213D01*
X40959786Y-53929890D01*
X40787820Y-53804951D01*
X40598414Y-53708444D01*
X40598413Y-53708443D01*
X40598412Y-53708443D01*
X40396243Y-53642754D01*
X40396241Y-53642753D01*
X40396240Y-53642753D01*
X40234957Y-53617208D01*
X40186287Y-53609500D01*
X39973713Y-53609500D01*
X39925042Y-53617208D01*
X39763760Y-53642753D01*
X39561585Y-53708444D01*
X39372179Y-53804951D01*
X39200213Y-53929890D01*
X39049890Y-54080213D01*
X38924949Y-54252182D01*
X38920484Y-54260946D01*
X38872509Y-54311742D01*
X38804688Y-54328536D01*
X38738553Y-54305998D01*
X38699516Y-54260946D01*
X38695050Y-54252182D01*
X38570109Y-54080213D01*
X38419786Y-53929890D01*
X38247820Y-53804951D01*
X38058414Y-53708444D01*
X38058413Y-53708443D01*
X38058412Y-53708443D01*
X37856243Y-53642754D01*
X37856241Y-53642753D01*
X37856240Y-53642753D01*
X37694957Y-53617208D01*
X37646287Y-53609500D01*
X37433713Y-53609500D01*
X37385042Y-53617208D01*
X37223760Y-53642753D01*
X37021585Y-53708444D01*
X36832179Y-53804951D01*
X36660215Y-53929889D01*
X36546673Y-54043431D01*
X36485350Y-54076915D01*
X36415658Y-54071931D01*
X36359725Y-54030059D01*
X36342810Y-53999082D01*
X36293797Y-53867671D01*
X36293793Y-53867664D01*
X36207547Y-53752455D01*
X36207544Y-53752452D01*
X36092335Y-53666206D01*
X36092328Y-53666202D01*
X35957482Y-53615908D01*
X35957483Y-53615908D01*
X35897883Y-53609501D01*
X35897881Y-53609500D01*
X35897873Y-53609500D01*
X35897864Y-53609500D01*
X34102129Y-53609500D01*
X34102123Y-53609501D01*
X34042516Y-53615908D01*
X33907671Y-53666202D01*
X33907664Y-53666206D01*
X33792455Y-53752452D01*
X33792452Y-53752455D01*
X33706206Y-53867664D01*
X33706202Y-53867671D01*
X33655908Y-54002517D01*
X33649501Y-54062116D01*
X33649500Y-54062135D01*
X31132031Y-54062135D01*
X30999792Y-53929896D01*
X30999786Y-53929890D01*
X30827820Y-53804951D01*
X30638414Y-53708444D01*
X30638413Y-53708443D01*
X30638412Y-53708443D01*
X30436243Y-53642754D01*
X30436241Y-53642753D01*
X30436240Y-53642753D01*
X30274957Y-53617208D01*
X30226287Y-53609500D01*
X30013713Y-53609500D01*
X29965042Y-53617208D01*
X29803760Y-53642753D01*
X29601585Y-53708444D01*
X29412179Y-53804951D01*
X29240213Y-53929890D01*
X29089890Y-54080213D01*
X28964949Y-54252182D01*
X28960484Y-54260946D01*
X28912509Y-54311742D01*
X28844688Y-54328536D01*
X28778553Y-54305998D01*
X28739516Y-54260946D01*
X28735050Y-54252182D01*
X28610109Y-54080213D01*
X28459786Y-53929890D01*
X28287820Y-53804951D01*
X28098414Y-53708444D01*
X28098413Y-53708443D01*
X28098412Y-53708443D01*
X27896243Y-53642754D01*
X27896241Y-53642753D01*
X27896240Y-53642753D01*
X27734957Y-53617208D01*
X27686287Y-53609500D01*
X27473713Y-53609500D01*
X27425042Y-53617208D01*
X27263760Y-53642753D01*
X27061585Y-53708444D01*
X26872179Y-53804951D01*
X26700213Y-53929890D01*
X26549890Y-54080213D01*
X26424949Y-54252182D01*
X26420484Y-54260946D01*
X26372509Y-54311742D01*
X26304688Y-54328536D01*
X26238553Y-54305998D01*
X26199516Y-54260946D01*
X26195050Y-54252182D01*
X26070109Y-54080213D01*
X25919786Y-53929890D01*
X25747820Y-53804951D01*
X25558414Y-53708444D01*
X25558413Y-53708443D01*
X25558412Y-53708443D01*
X25356243Y-53642754D01*
X25356241Y-53642753D01*
X25356240Y-53642753D01*
X25194957Y-53617208D01*
X25146287Y-53609500D01*
X24933713Y-53609500D01*
X24885042Y-53617208D01*
X24723760Y-53642753D01*
X24521585Y-53708444D01*
X24332179Y-53804951D01*
X24160215Y-53929889D01*
X24046673Y-54043431D01*
X23985350Y-54076915D01*
X23915658Y-54071931D01*
X23859725Y-54030059D01*
X23842810Y-53999082D01*
X23793797Y-53867671D01*
X23793793Y-53867664D01*
X23707547Y-53752455D01*
X23707544Y-53752452D01*
X23592335Y-53666206D01*
X23592328Y-53666202D01*
X23457482Y-53615908D01*
X23457483Y-53615908D01*
X23397883Y-53609501D01*
X23397881Y-53609500D01*
X23397873Y-53609500D01*
X23397864Y-53609500D01*
X21602129Y-53609500D01*
X21602123Y-53609501D01*
X21542516Y-53615908D01*
X21407671Y-53666202D01*
X21407664Y-53666206D01*
X21292455Y-53752452D01*
X21292452Y-53752455D01*
X21206206Y-53867664D01*
X21206202Y-53867671D01*
X21155908Y-54002517D01*
X21149501Y-54062116D01*
X21149500Y-54062135D01*
X20500500Y-54062135D01*
X20500500Y-49980676D01*
X32301500Y-49980676D01*
X32301500Y-50169323D01*
X32331011Y-50355650D01*
X32389304Y-50535061D01*
X32389305Y-50535063D01*
X32474952Y-50703153D01*
X32493189Y-50728255D01*
X32493190Y-50728255D01*
X33093600Y-50127845D01*
X33093600Y-50128504D01*
X33121295Y-50231865D01*
X33174799Y-50324536D01*
X33250464Y-50400201D01*
X33343135Y-50453705D01*
X33446496Y-50481400D01*
X33447153Y-50481400D01*
X32846743Y-51081808D01*
X32846743Y-51081809D01*
X32871844Y-51100046D01*
X33039935Y-51185694D01*
X33039938Y-51185695D01*
X33219349Y-51243988D01*
X33405677Y-51273500D01*
X33594323Y-51273500D01*
X33780650Y-51243988D01*
X33960061Y-51185695D01*
X33960064Y-51185694D01*
X34128151Y-51100048D01*
X34153255Y-51081808D01*
X34153256Y-51081808D01*
X33552848Y-50481400D01*
X33553504Y-50481400D01*
X33656865Y-50453705D01*
X33749536Y-50400201D01*
X33825201Y-50324536D01*
X33878705Y-50231865D01*
X33906400Y-50128504D01*
X33906400Y-50127847D01*
X34506808Y-50728256D01*
X34506808Y-50728255D01*
X34525048Y-50703151D01*
X34610694Y-50535064D01*
X34610695Y-50535061D01*
X34668988Y-50355650D01*
X34698500Y-50169323D01*
X34698500Y-49980676D01*
X34668988Y-49794349D01*
X34610695Y-49614938D01*
X34610694Y-49614935D01*
X34525046Y-49446844D01*
X34506809Y-49421743D01*
X34506808Y-49421743D01*
X33906400Y-50022151D01*
X33906400Y-50021496D01*
X33878705Y-49918135D01*
X33825201Y-49825464D01*
X33749536Y-49749799D01*
X33656865Y-49696295D01*
X33553504Y-49668600D01*
X33552847Y-49668600D01*
X34153255Y-49068190D01*
X34153255Y-49068189D01*
X34128153Y-49049952D01*
X33960063Y-48964305D01*
X33960061Y-48964304D01*
X33780650Y-48906011D01*
X33594323Y-48876500D01*
X33405677Y-48876500D01*
X33219349Y-48906011D01*
X33039938Y-48964304D01*
X33039936Y-48964305D01*
X32871844Y-49049953D01*
X32871839Y-49049957D01*
X32846743Y-49068188D01*
X32846743Y-49068191D01*
X33447154Y-49668600D01*
X33446496Y-49668600D01*
X33343135Y-49696295D01*
X33250464Y-49749799D01*
X33174799Y-49825464D01*
X33121295Y-49918135D01*
X33093600Y-50021496D01*
X33093600Y-50022152D01*
X32493191Y-49421743D01*
X32493188Y-49421743D01*
X32474957Y-49446839D01*
X32474953Y-49446844D01*
X32389305Y-49614936D01*
X32389304Y-49614938D01*
X32331011Y-49794349D01*
X32301500Y-49980676D01*
X20500500Y-49980676D01*
X20500500Y-47937648D01*
X24699500Y-47937648D01*
X24699500Y-48142351D01*
X24731522Y-48344534D01*
X24794781Y-48539223D01*
X24887715Y-48721613D01*
X25008028Y-48887213D01*
X25152786Y-49031971D01*
X25291132Y-49132483D01*
X25318390Y-49152287D01*
X25434607Y-49211503D01*
X25500776Y-49245218D01*
X25500778Y-49245218D01*
X25500781Y-49245220D01*
X25605137Y-49279127D01*
X25695465Y-49308477D01*
X25768723Y-49320080D01*
X25897648Y-49340500D01*
X25897649Y-49340500D01*
X26102351Y-49340500D01*
X26102352Y-49340500D01*
X26304534Y-49308477D01*
X26499219Y-49245220D01*
X26681610Y-49152287D01*
X26791818Y-49072217D01*
X26847213Y-49031971D01*
X26847215Y-49031968D01*
X26847219Y-49031966D01*
X26991966Y-48887219D01*
X26991968Y-48887215D01*
X26991971Y-48887213D01*
X27045620Y-48813370D01*
X27112287Y-48721610D01*
X27205220Y-48539219D01*
X27268477Y-48344534D01*
X27300500Y-48142352D01*
X27300500Y-47937648D01*
X27286279Y-47847864D01*
X27268477Y-47735465D01*
X27205218Y-47540776D01*
X27160116Y-47452259D01*
X27112287Y-47358390D01*
X27088760Y-47326007D01*
X26991971Y-47192786D01*
X26847213Y-47048028D01*
X26681613Y-46927715D01*
X26681612Y-46927714D01*
X26681610Y-46927713D01*
X26624653Y-46898691D01*
X26499223Y-46834781D01*
X26304534Y-46771522D01*
X26126912Y-46743390D01*
X26102352Y-46739500D01*
X25897648Y-46739500D01*
X25877905Y-46742627D01*
X25695465Y-46771522D01*
X25500776Y-46834781D01*
X25318386Y-46927715D01*
X25152786Y-47048028D01*
X25008028Y-47192786D01*
X24887715Y-47358386D01*
X24794781Y-47540776D01*
X24731522Y-47735465D01*
X24699500Y-47937648D01*
X20500500Y-47937648D01*
X20500500Y-45715631D01*
X29301000Y-45715631D01*
X29301000Y-45904368D01*
X29313170Y-45981205D01*
X29330523Y-46090767D01*
X29388843Y-46270256D01*
X29474523Y-46438413D01*
X29585454Y-46591096D01*
X29718904Y-46724546D01*
X29871587Y-46835477D01*
X30039744Y-46921157D01*
X30219233Y-46979477D01*
X30289134Y-46990548D01*
X30405632Y-47009000D01*
X30405637Y-47009000D01*
X30594368Y-47009000D01*
X30697920Y-46992598D01*
X30780767Y-46979477D01*
X30960256Y-46921157D01*
X31128413Y-46835477D01*
X31281096Y-46724546D01*
X31414546Y-46591096D01*
X31525477Y-46438413D01*
X31611157Y-46270256D01*
X31669477Y-46090767D01*
X31687267Y-45978442D01*
X31699000Y-45904368D01*
X31699000Y-45715631D01*
X31670858Y-45537952D01*
X31669477Y-45529233D01*
X31611157Y-45349744D01*
X31525477Y-45181587D01*
X31414546Y-45028904D01*
X31281096Y-44895454D01*
X31128413Y-44784523D01*
X30960256Y-44698843D01*
X30780767Y-44640523D01*
X30780765Y-44640522D01*
X30780763Y-44640522D01*
X30594368Y-44611000D01*
X30594363Y-44611000D01*
X30405637Y-44611000D01*
X30405632Y-44611000D01*
X30219236Y-44640522D01*
X30039741Y-44698844D01*
X29871586Y-44784523D01*
X29784475Y-44847813D01*
X29718904Y-44895454D01*
X29718902Y-44895456D01*
X29718901Y-44895456D01*
X29585456Y-45028901D01*
X29585456Y-45028902D01*
X29585454Y-45028904D01*
X29544899Y-45084723D01*
X29474523Y-45181586D01*
X29388844Y-45349741D01*
X29330522Y-45529236D01*
X29301000Y-45715631D01*
X20500500Y-45715631D01*
X20500500Y-42857682D01*
X24700000Y-42857682D01*
X24700000Y-43062317D01*
X24732009Y-43264417D01*
X24795244Y-43459031D01*
X24888141Y-43641350D01*
X24888147Y-43641359D01*
X24920523Y-43685921D01*
X24920524Y-43685922D01*
X25600000Y-43006446D01*
X25600000Y-43012661D01*
X25627259Y-43114394D01*
X25679920Y-43205606D01*
X25754394Y-43280080D01*
X25845606Y-43332741D01*
X25947339Y-43360000D01*
X25953553Y-43360000D01*
X25274076Y-44039474D01*
X25318650Y-44071859D01*
X25500968Y-44164755D01*
X25695582Y-44227990D01*
X25897683Y-44260000D01*
X26102317Y-44260000D01*
X26304417Y-44227990D01*
X26499031Y-44164755D01*
X26681349Y-44071859D01*
X26725921Y-44039474D01*
X26046447Y-43360000D01*
X26052661Y-43360000D01*
X26154394Y-43332741D01*
X26245606Y-43280080D01*
X26320080Y-43205606D01*
X26372741Y-43114394D01*
X26400000Y-43012661D01*
X26400000Y-43006447D01*
X27079474Y-43685921D01*
X27111859Y-43641349D01*
X27204755Y-43459031D01*
X27267990Y-43264417D01*
X27300000Y-43062317D01*
X27300000Y-42857682D01*
X27267990Y-42655582D01*
X27204754Y-42460965D01*
X27179836Y-42412061D01*
X27179835Y-42412060D01*
X27153631Y-42360631D01*
X32301000Y-42360631D01*
X32301000Y-42549368D01*
X32330522Y-42735763D01*
X32330523Y-42735767D01*
X32388843Y-42915256D01*
X32474523Y-43083413D01*
X32585454Y-43236096D01*
X32718904Y-43369546D01*
X32871587Y-43480477D01*
X33039744Y-43566157D01*
X33219233Y-43624477D01*
X33289134Y-43635548D01*
X33405632Y-43654000D01*
X33405637Y-43654000D01*
X33594368Y-43654000D01*
X33697920Y-43637598D01*
X33780767Y-43624477D01*
X33960256Y-43566157D01*
X34128413Y-43480477D01*
X34281096Y-43369546D01*
X34414546Y-43236096D01*
X34525477Y-43083413D01*
X34611157Y-42915256D01*
X34669477Y-42735767D01*
X34682598Y-42652920D01*
X34699000Y-42549368D01*
X34699000Y-42360631D01*
X34669477Y-42174236D01*
X34669477Y-42174233D01*
X34611157Y-41994744D01*
X34525477Y-41826587D01*
X34414546Y-41673904D01*
X34281096Y-41540454D01*
X34128413Y-41429523D01*
X33960256Y-41343843D01*
X33780767Y-41285523D01*
X33780765Y-41285522D01*
X33780763Y-41285522D01*
X33594368Y-41256000D01*
X33594363Y-41256000D01*
X33405637Y-41256000D01*
X33405632Y-41256000D01*
X33219236Y-41285522D01*
X33039741Y-41343844D01*
X32871586Y-41429523D01*
X32784475Y-41492813D01*
X32718904Y-41540454D01*
X32718902Y-41540456D01*
X32718901Y-41540456D01*
X32585456Y-41673901D01*
X32585456Y-41673902D01*
X32585454Y-41673904D01*
X32547697Y-41725872D01*
X32474523Y-41826586D01*
X32388844Y-41994741D01*
X32330522Y-42174236D01*
X32301000Y-42360631D01*
X27153631Y-42360631D01*
X27111859Y-42278650D01*
X27079474Y-42234077D01*
X27079474Y-42234076D01*
X26400000Y-42913551D01*
X26400000Y-42907339D01*
X26372741Y-42805606D01*
X26320080Y-42714394D01*
X26245606Y-42639920D01*
X26154394Y-42587259D01*
X26052661Y-42560000D01*
X26046446Y-42560000D01*
X26725922Y-41880524D01*
X26725921Y-41880523D01*
X26681359Y-41848147D01*
X26681350Y-41848141D01*
X26499031Y-41755244D01*
X26304417Y-41692009D01*
X26102317Y-41660000D01*
X25897683Y-41660000D01*
X25695582Y-41692009D01*
X25500968Y-41755244D01*
X25318644Y-41848143D01*
X25274077Y-41880523D01*
X25274077Y-41880524D01*
X25953554Y-42560000D01*
X25947339Y-42560000D01*
X25845606Y-42587259D01*
X25754394Y-42639920D01*
X25679920Y-42714394D01*
X25627259Y-42805606D01*
X25600000Y-42907339D01*
X25600000Y-42913553D01*
X24920524Y-42234077D01*
X24920523Y-42234077D01*
X24888143Y-42278644D01*
X24795244Y-42460968D01*
X24732009Y-42655582D01*
X24700000Y-42857682D01*
X20500500Y-42857682D01*
X20500500Y-39702648D01*
X38899500Y-39702648D01*
X38899500Y-40707351D01*
X38931522Y-40909534D01*
X38994781Y-41104223D01*
X39051702Y-41215935D01*
X39087159Y-41285523D01*
X39087715Y-41286613D01*
X39208028Y-41452213D01*
X39352786Y-41596971D01*
X39507749Y-41709556D01*
X39518390Y-41717287D01*
X39634607Y-41776503D01*
X39700776Y-41810218D01*
X39700778Y-41810218D01*
X39700781Y-41810220D01*
X39758580Y-41829000D01*
X39895465Y-41873477D01*
X39939958Y-41880524D01*
X40097648Y-41905500D01*
X40097649Y-41905500D01*
X40302351Y-41905500D01*
X40302352Y-41905500D01*
X40504534Y-41873477D01*
X40699219Y-41810220D01*
X40881610Y-41717287D01*
X41001619Y-41630096D01*
X41047213Y-41596971D01*
X41047215Y-41596968D01*
X41047219Y-41596966D01*
X41191966Y-41452219D01*
X41191968Y-41452215D01*
X41191971Y-41452213D01*
X41312284Y-41286614D01*
X41312285Y-41286613D01*
X41312287Y-41286610D01*
X41359516Y-41193917D01*
X41407489Y-41143123D01*
X41475310Y-41126328D01*
X41541445Y-41148865D01*
X41580483Y-41193917D01*
X41612964Y-41257664D01*
X41627715Y-41286614D01*
X41748028Y-41452213D01*
X41892786Y-41596971D01*
X42047749Y-41709556D01*
X42058390Y-41717287D01*
X42174607Y-41776503D01*
X42240776Y-41810218D01*
X42240778Y-41810218D01*
X42240781Y-41810220D01*
X42298580Y-41829000D01*
X42435465Y-41873477D01*
X42479958Y-41880524D01*
X42637648Y-41905500D01*
X42637649Y-41905500D01*
X42842351Y-41905500D01*
X42842352Y-41905500D01*
X43044534Y-41873477D01*
X43239219Y-41810220D01*
X43421610Y-41717287D01*
X43541619Y-41630096D01*
X43587213Y-41596971D01*
X43587215Y-41596968D01*
X43587219Y-41596966D01*
X43731966Y-41452219D01*
X43731968Y-41452215D01*
X43731971Y-41452213D01*
X43852284Y-41286614D01*
X43852285Y-41286613D01*
X43852287Y-41286610D01*
X43899516Y-41193917D01*
X43947489Y-41143123D01*
X44015310Y-41126328D01*
X44081445Y-41148865D01*
X44120483Y-41193917D01*
X44152964Y-41257664D01*
X44167715Y-41286614D01*
X44288028Y-41452213D01*
X44432786Y-41596971D01*
X44587749Y-41709556D01*
X44598390Y-41717287D01*
X44714607Y-41776503D01*
X44780776Y-41810218D01*
X44780778Y-41810218D01*
X44780781Y-41810220D01*
X44838580Y-41829000D01*
X44975465Y-41873477D01*
X45019958Y-41880524D01*
X45177648Y-41905500D01*
X45177649Y-41905500D01*
X45382351Y-41905500D01*
X45382352Y-41905500D01*
X45584534Y-41873477D01*
X45779219Y-41810220D01*
X45961610Y-41717287D01*
X46081619Y-41630096D01*
X46127213Y-41596971D01*
X46127215Y-41596968D01*
X46127219Y-41596966D01*
X46271966Y-41452219D01*
X46271968Y-41452215D01*
X46271971Y-41452213D01*
X46392284Y-41286614D01*
X46392285Y-41286613D01*
X46392287Y-41286610D01*
X46439516Y-41193917D01*
X46487489Y-41143123D01*
X46555310Y-41126328D01*
X46621445Y-41148865D01*
X46660483Y-41193917D01*
X46692964Y-41257664D01*
X46707715Y-41286614D01*
X46828028Y-41452213D01*
X46828034Y-41452219D01*
X46972781Y-41596966D01*
X47018384Y-41630098D01*
X47061050Y-41685425D01*
X47069500Y-41730416D01*
X47069500Y-44317770D01*
X47049815Y-44384809D01*
X47033181Y-44405451D01*
X46225451Y-45213181D01*
X46164128Y-45246666D01*
X46137770Y-45249500D01*
X43676076Y-45249500D01*
X43647242Y-45255234D01*
X43647243Y-45255235D01*
X43531092Y-45278339D01*
X43531086Y-45278341D01*
X43470069Y-45303616D01*
X43394509Y-45334914D01*
X43394496Y-45334921D01*
X43345270Y-45367811D01*
X43345271Y-45367812D01*
X43271581Y-45417049D01*
X42578785Y-46109845D01*
X42517462Y-46143330D01*
X42510504Y-46144637D01*
X42435467Y-46156522D01*
X42240778Y-46219781D01*
X42058386Y-46312715D01*
X41892786Y-46433028D01*
X41748032Y-46577782D01*
X41721668Y-46614070D01*
X41666338Y-46656735D01*
X41596724Y-46662714D01*
X41534929Y-46630108D01*
X41500572Y-46569269D01*
X41498060Y-46554438D01*
X41497640Y-46550533D01*
X41494091Y-46517517D01*
X41443796Y-46382669D01*
X41443795Y-46382668D01*
X41443793Y-46382664D01*
X41357547Y-46267455D01*
X41357544Y-46267452D01*
X41242335Y-46181206D01*
X41242328Y-46181202D01*
X41107482Y-46130908D01*
X41107483Y-46130908D01*
X41047883Y-46124501D01*
X41047881Y-46124500D01*
X41047873Y-46124500D01*
X41047864Y-46124500D01*
X39352129Y-46124500D01*
X39352123Y-46124501D01*
X39292516Y-46130908D01*
X39157671Y-46181202D01*
X39157664Y-46181206D01*
X39042455Y-46267452D01*
X39042452Y-46267455D01*
X38956206Y-46382664D01*
X38956202Y-46382671D01*
X38905908Y-46517517D01*
X38899501Y-46577116D01*
X38899500Y-46577135D01*
X38899500Y-49072870D01*
X38899501Y-49072876D01*
X38905908Y-49132483D01*
X38956202Y-49267328D01*
X38956206Y-49267335D01*
X39042452Y-49382544D01*
X39042455Y-49382547D01*
X39157664Y-49468793D01*
X39157671Y-49468797D01*
X39292517Y-49519091D01*
X39292516Y-49519091D01*
X39299444Y-49519835D01*
X39352127Y-49525500D01*
X41047872Y-49525499D01*
X41107483Y-49519091D01*
X41242331Y-49468796D01*
X41357546Y-49382546D01*
X41443796Y-49267331D01*
X41494091Y-49132483D01*
X41498061Y-49095556D01*
X41524796Y-49031011D01*
X41582188Y-48991161D01*
X41652013Y-48988666D01*
X41712102Y-49024317D01*
X41721667Y-49035929D01*
X41748032Y-49072217D01*
X41892786Y-49216971D01*
X42013148Y-49304417D01*
X42058390Y-49337287D01*
X42147212Y-49382544D01*
X42240776Y-49430218D01*
X42240778Y-49430218D01*
X42240781Y-49430220D01*
X42298580Y-49449000D01*
X42435465Y-49493477D01*
X42536557Y-49509488D01*
X42637648Y-49525500D01*
X42637649Y-49525500D01*
X42842351Y-49525500D01*
X42842352Y-49525500D01*
X43044534Y-49493477D01*
X43239219Y-49430220D01*
X43421610Y-49337287D01*
X43517901Y-49267328D01*
X43587213Y-49216971D01*
X43587215Y-49216968D01*
X43587219Y-49216966D01*
X43731966Y-49072219D01*
X43731968Y-49072215D01*
X43731971Y-49072213D01*
X43852284Y-48906614D01*
X43852283Y-48906614D01*
X43852287Y-48906610D01*
X43899516Y-48813917D01*
X43947489Y-48763123D01*
X44015310Y-48746328D01*
X44081445Y-48768865D01*
X44120483Y-48813917D01*
X44153346Y-48878413D01*
X44167715Y-48906614D01*
X44288028Y-49072213D01*
X44432786Y-49216971D01*
X44553148Y-49304417D01*
X44598390Y-49337287D01*
X44687212Y-49382544D01*
X44780776Y-49430218D01*
X44780778Y-49430218D01*
X44780781Y-49430220D01*
X44838580Y-49449000D01*
X44975465Y-49493477D01*
X45076557Y-49509488D01*
X45177648Y-49525500D01*
X45177649Y-49525500D01*
X45382351Y-49525500D01*
X45382352Y-49525500D01*
X45584534Y-49493477D01*
X45779219Y-49430220D01*
X45961610Y-49337287D01*
X46057901Y-49267328D01*
X46127213Y-49216971D01*
X46127215Y-49216968D01*
X46127219Y-49216966D01*
X46271966Y-49072219D01*
X46271968Y-49072215D01*
X46271971Y-49072213D01*
X46392284Y-48906614D01*
X46392283Y-48906614D01*
X46392287Y-48906610D01*
X46439795Y-48813369D01*
X46487770Y-48762574D01*
X46555591Y-48745779D01*
X46621725Y-48768316D01*
X46660765Y-48813370D01*
X46708140Y-48906349D01*
X46828417Y-49071894D01*
X46828417Y-49071895D01*
X46973104Y-49216582D01*
X47138650Y-49336859D01*
X47320968Y-49429754D01*
X47515578Y-49492988D01*
X47570000Y-49501607D01*
X47570000Y-48140686D01*
X47574394Y-48145080D01*
X47665606Y-48197741D01*
X47767339Y-48225000D01*
X47872661Y-48225000D01*
X47974394Y-48197741D01*
X48065606Y-48145080D01*
X48070000Y-48140686D01*
X48070000Y-49501606D01*
X48124421Y-49492988D01*
X48319031Y-49429754D01*
X48501349Y-49336859D01*
X48666894Y-49216582D01*
X48666895Y-49216582D01*
X48811582Y-49071895D01*
X48811582Y-49071894D01*
X48931859Y-48906349D01*
X49024755Y-48724031D01*
X49087990Y-48529417D01*
X49120000Y-48327317D01*
X49120000Y-48155631D01*
X50141000Y-48155631D01*
X50141000Y-48344368D01*
X50170522Y-48530763D01*
X50170523Y-48530767D01*
X50228843Y-48710256D01*
X50314523Y-48878413D01*
X50425454Y-49031096D01*
X50558904Y-49164546D01*
X50711587Y-49275477D01*
X50879744Y-49361157D01*
X51059233Y-49419477D01*
X51124121Y-49429754D01*
X51245632Y-49449000D01*
X51245637Y-49449000D01*
X51434368Y-49449000D01*
X51552937Y-49430220D01*
X51620767Y-49419477D01*
X51800256Y-49361157D01*
X51968413Y-49275477D01*
X52121096Y-49164546D01*
X52254546Y-49031096D01*
X52365477Y-48878413D01*
X52451157Y-48710256D01*
X52509477Y-48530767D01*
X52522598Y-48447920D01*
X52539000Y-48344368D01*
X52539000Y-48155631D01*
X52514350Y-48000000D01*
X52509477Y-47969233D01*
X52451157Y-47789744D01*
X52365477Y-47621587D01*
X52254546Y-47468904D01*
X52121096Y-47335454D01*
X52108086Y-47326002D01*
X52070876Y-47298967D01*
X51968413Y-47224523D01*
X51800256Y-47138843D01*
X51620767Y-47080523D01*
X51620765Y-47080522D01*
X51620763Y-47080522D01*
X51434368Y-47051000D01*
X51434363Y-47051000D01*
X51245637Y-47051000D01*
X51245632Y-47051000D01*
X51059236Y-47080522D01*
X50879741Y-47138844D01*
X50711586Y-47224523D01*
X50624475Y-47287813D01*
X50558904Y-47335454D01*
X50558902Y-47335456D01*
X50558901Y-47335456D01*
X50425456Y-47468901D01*
X50425456Y-47468902D01*
X50425454Y-47468904D01*
X50399287Y-47504920D01*
X50314523Y-47621586D01*
X50228844Y-47789741D01*
X50170522Y-47969236D01*
X50141000Y-48155631D01*
X49120000Y-48155631D01*
X49120000Y-48075000D01*
X48135686Y-48075000D01*
X48140080Y-48070606D01*
X48192741Y-47979394D01*
X48220000Y-47877661D01*
X48220000Y-47772339D01*
X48192741Y-47670606D01*
X48140080Y-47579394D01*
X48135686Y-47575000D01*
X49120000Y-47575000D01*
X49120000Y-47322682D01*
X49087990Y-47120582D01*
X49024755Y-46925968D01*
X48931859Y-46743650D01*
X48811582Y-46578105D01*
X48811582Y-46578104D01*
X48666895Y-46433417D01*
X48501349Y-46313140D01*
X48493883Y-46309336D01*
X48319029Y-46220244D01*
X48263357Y-46202155D01*
X56475000Y-46202155D01*
X56475000Y-46750000D01*
X57219670Y-46750000D01*
X57199925Y-46769745D01*
X57150556Y-46855255D01*
X57125000Y-46950630D01*
X57125000Y-47049370D01*
X57150556Y-47144745D01*
X57199925Y-47230255D01*
X57219670Y-47250000D01*
X56475000Y-47250000D01*
X56475000Y-47797844D01*
X56481401Y-47857372D01*
X56481403Y-47857379D01*
X56531645Y-47992086D01*
X56531649Y-47992093D01*
X56617809Y-48107187D01*
X56617812Y-48107190D01*
X56732906Y-48193350D01*
X56732913Y-48193354D01*
X56867620Y-48243596D01*
X56867627Y-48243598D01*
X56927155Y-48249999D01*
X56927172Y-48250000D01*
X57250000Y-48250000D01*
X57250000Y-47280330D01*
X57269745Y-47300075D01*
X57355255Y-47349444D01*
X57450630Y-47375000D01*
X57549370Y-47375000D01*
X57644745Y-47349444D01*
X57730255Y-47300075D01*
X57744500Y-47285830D01*
X57744500Y-47326003D01*
X57746380Y-47335456D01*
X57747617Y-47341671D01*
X57750000Y-47365865D01*
X57750000Y-48250000D01*
X58072828Y-48250000D01*
X58072844Y-48249999D01*
X58132372Y-48243598D01*
X58132376Y-48243597D01*
X58267089Y-48193352D01*
X58267896Y-48192748D01*
X58268845Y-48192393D01*
X58274876Y-48189101D01*
X58275349Y-48189967D01*
X58333360Y-48168329D01*
X58389661Y-48177451D01*
X58470873Y-48211091D01*
X58666478Y-48249999D01*
X58668992Y-48250499D01*
X58668996Y-48250500D01*
X58668997Y-48250500D01*
X58871004Y-48250500D01*
X58871005Y-48250499D01*
X59069127Y-48211091D01*
X59255756Y-48133786D01*
X59336110Y-48080094D01*
X59402786Y-48059217D01*
X59470166Y-48077701D01*
X59473865Y-48080078D01*
X59554244Y-48133786D01*
X59554245Y-48133786D01*
X59554246Y-48133787D01*
X59574924Y-48142352D01*
X59740873Y-48211091D01*
X59936478Y-48249999D01*
X59938992Y-48250499D01*
X59938996Y-48250500D01*
X59938997Y-48250500D01*
X60141004Y-48250500D01*
X60141005Y-48250499D01*
X60339127Y-48211091D01*
X60525756Y-48133786D01*
X60693718Y-48021558D01*
X60836558Y-47878718D01*
X60948786Y-47710756D01*
X61026091Y-47524127D01*
X61065500Y-47326003D01*
X61065500Y-46673997D01*
X61026091Y-46475873D01*
X60948786Y-46289244D01*
X60936099Y-46270256D01*
X60900980Y-46217696D01*
X60900979Y-46217695D01*
X60857173Y-46152135D01*
X65449500Y-46152135D01*
X65449500Y-47847870D01*
X65449501Y-47847876D01*
X65455908Y-47907483D01*
X65506202Y-48042328D01*
X65506206Y-48042335D01*
X65554755Y-48107187D01*
X65592454Y-48157546D01*
X65601385Y-48164231D01*
X65643254Y-48220163D01*
X65648239Y-48289854D01*
X65637558Y-48319791D01*
X65545245Y-48500965D01*
X65482009Y-48695582D01*
X65450000Y-48897682D01*
X65450000Y-49102317D01*
X65482009Y-49304417D01*
X65545244Y-49499031D01*
X65638141Y-49681350D01*
X65638147Y-49681359D01*
X65670523Y-49725921D01*
X65670524Y-49725922D01*
X66350000Y-49046446D01*
X66350000Y-49052661D01*
X66377259Y-49154394D01*
X66429920Y-49245606D01*
X66504394Y-49320080D01*
X66595606Y-49372741D01*
X66697339Y-49400000D01*
X66703553Y-49400000D01*
X66024076Y-50079474D01*
X66068650Y-50111859D01*
X66250968Y-50204755D01*
X66445582Y-50267990D01*
X66647683Y-50300000D01*
X66852317Y-50300000D01*
X67054417Y-50267990D01*
X67249031Y-50204755D01*
X67431349Y-50111859D01*
X67475921Y-50079474D01*
X66796447Y-49400000D01*
X66802661Y-49400000D01*
X66904394Y-49372741D01*
X66995606Y-49320080D01*
X67070080Y-49245606D01*
X67122741Y-49154394D01*
X67150000Y-49052661D01*
X67150000Y-49046447D01*
X67829474Y-49725921D01*
X67861859Y-49681349D01*
X67954755Y-49499031D01*
X68017990Y-49304417D01*
X68050000Y-49102317D01*
X68050000Y-48897682D01*
X68017990Y-48695582D01*
X67954755Y-48500968D01*
X67862441Y-48319792D01*
X67849545Y-48251123D01*
X67875821Y-48186382D01*
X67898611Y-48164234D01*
X67907546Y-48157546D01*
X67993796Y-48042331D01*
X68044091Y-47907483D01*
X68050500Y-47847873D01*
X68050499Y-46152128D01*
X68044091Y-46092517D01*
X68043438Y-46090767D01*
X67993797Y-45957671D01*
X67993793Y-45957664D01*
X67907547Y-45842455D01*
X67907544Y-45842452D01*
X67792335Y-45756206D01*
X67792328Y-45756202D01*
X67657482Y-45705908D01*
X67657483Y-45705908D01*
X67597883Y-45699501D01*
X67597881Y-45699500D01*
X67597873Y-45699500D01*
X67597864Y-45699500D01*
X65902129Y-45699500D01*
X65902123Y-45699501D01*
X65842516Y-45705908D01*
X65707671Y-45756202D01*
X65707664Y-45756206D01*
X65592455Y-45842452D01*
X65592452Y-45842455D01*
X65506206Y-45957664D01*
X65506202Y-45957671D01*
X65455908Y-46092517D01*
X65450522Y-46142620D01*
X65449501Y-46152123D01*
X65449500Y-46152135D01*
X60857173Y-46152135D01*
X60836558Y-46121282D01*
X60836555Y-46121278D01*
X60693718Y-45978441D01*
X60525762Y-45866217D01*
X60525752Y-45866212D01*
X60339127Y-45788909D01*
X60339119Y-45788907D01*
X60141007Y-45749500D01*
X60141003Y-45749500D01*
X59938997Y-45749500D01*
X59938992Y-45749500D01*
X59740880Y-45788907D01*
X59740872Y-45788909D01*
X59554244Y-45866213D01*
X59473891Y-45919904D01*
X59407213Y-45940782D01*
X59339833Y-45922297D01*
X59336109Y-45919904D01*
X59255755Y-45866213D01*
X59069127Y-45788909D01*
X59069119Y-45788907D01*
X58871007Y-45749500D01*
X58871003Y-45749500D01*
X58668997Y-45749500D01*
X58668992Y-45749500D01*
X58470880Y-45788907D01*
X58470868Y-45788910D01*
X58389661Y-45822547D01*
X58320191Y-45830016D01*
X58275140Y-45810405D01*
X58274872Y-45810897D01*
X58269374Y-45807894D01*
X58267895Y-45807251D01*
X58267086Y-45806645D01*
X58132379Y-45756403D01*
X58132372Y-45756401D01*
X58072844Y-45750000D01*
X57750000Y-45750000D01*
X57750000Y-46634134D01*
X57747617Y-46658326D01*
X57744500Y-46673997D01*
X57744500Y-46714170D01*
X57730255Y-46699925D01*
X57644745Y-46650556D01*
X57549370Y-46625000D01*
X57450630Y-46625000D01*
X57355255Y-46650556D01*
X57269745Y-46699925D01*
X57250000Y-46719670D01*
X57250000Y-45750000D01*
X56927155Y-45750000D01*
X56867627Y-45756401D01*
X56867620Y-45756403D01*
X56732913Y-45806645D01*
X56732906Y-45806649D01*
X56617812Y-45892809D01*
X56617809Y-45892812D01*
X56531649Y-46007906D01*
X56531645Y-46007913D01*
X56481403Y-46142620D01*
X56481401Y-46142627D01*
X56475000Y-46202155D01*
X48263357Y-46202155D01*
X48124413Y-46157009D01*
X48070000Y-46148390D01*
X48070000Y-47509314D01*
X48065606Y-47504920D01*
X47974394Y-47452259D01*
X47872661Y-47425000D01*
X47767339Y-47425000D01*
X47665606Y-47452259D01*
X47574394Y-47504920D01*
X47570000Y-47509314D01*
X47570000Y-46136657D01*
X47549118Y-46104670D01*
X47548619Y-46034802D01*
X47580160Y-45981207D01*
X48402952Y-45158416D01*
X48452186Y-45084729D01*
X48485084Y-45035495D01*
X48541658Y-44898913D01*
X48570500Y-44753918D01*
X48570500Y-41730416D01*
X48590185Y-41663377D01*
X48621613Y-41630099D01*
X48667219Y-41596966D01*
X48811966Y-41452219D01*
X48811968Y-41452215D01*
X48811971Y-41452213D01*
X48890705Y-41343843D01*
X48932287Y-41286610D01*
X49025220Y-41104219D01*
X49088477Y-40909534D01*
X49120500Y-40707352D01*
X49120500Y-40535631D01*
X50141000Y-40535631D01*
X50141000Y-40724368D01*
X50170522Y-40910763D01*
X50170523Y-40910767D01*
X50228843Y-41090256D01*
X50314523Y-41258413D01*
X50425454Y-41411096D01*
X50558904Y-41544546D01*
X50711587Y-41655477D01*
X50879744Y-41741157D01*
X51059233Y-41799477D01*
X51127050Y-41810218D01*
X51245632Y-41829000D01*
X51245637Y-41829000D01*
X51434368Y-41829000D01*
X51552937Y-41810220D01*
X51620767Y-41799477D01*
X51800256Y-41741157D01*
X51968413Y-41655477D01*
X52121096Y-41544546D01*
X52213507Y-41452135D01*
X56434500Y-41452135D01*
X56434500Y-43047870D01*
X56434501Y-43047876D01*
X56440908Y-43107483D01*
X56491202Y-43242328D01*
X56491206Y-43242335D01*
X56577452Y-43357544D01*
X56577455Y-43357547D01*
X56692664Y-43443793D01*
X56692671Y-43443797D01*
X56827517Y-43494091D01*
X56827516Y-43494091D01*
X56834444Y-43494835D01*
X56887127Y-43500500D01*
X58032872Y-43500499D01*
X58092483Y-43494091D01*
X58227331Y-43443796D01*
X58228430Y-43442972D01*
X58229717Y-43442492D01*
X58235112Y-43439547D01*
X58235535Y-43440322D01*
X58293887Y-43418552D01*
X58350198Y-43427673D01*
X58430873Y-43461091D01*
X58596777Y-43494091D01*
X58628992Y-43500499D01*
X58628996Y-43500500D01*
X58628997Y-43500500D01*
X58831004Y-43500500D01*
X58831005Y-43500499D01*
X59029127Y-43461091D01*
X59215756Y-43383786D01*
X59296110Y-43330094D01*
X59362786Y-43309217D01*
X59430166Y-43327701D01*
X59433865Y-43330078D01*
X59514244Y-43383786D01*
X59700873Y-43461091D01*
X59866777Y-43494091D01*
X59898992Y-43500499D01*
X59898996Y-43500500D01*
X59898997Y-43500500D01*
X60101004Y-43500500D01*
X60101005Y-43500499D01*
X60299127Y-43461091D01*
X60485756Y-43383786D01*
X60653718Y-43271558D01*
X60796558Y-43128718D01*
X60908786Y-42960756D01*
X60986091Y-42774127D01*
X61025500Y-42576003D01*
X61025500Y-41923997D01*
X60986091Y-41725873D01*
X60908786Y-41539244D01*
X60908784Y-41539241D01*
X60908782Y-41539237D01*
X60796558Y-41371281D01*
X60653718Y-41228441D01*
X60485762Y-41116217D01*
X60485752Y-41116212D01*
X60299127Y-41038909D01*
X60299119Y-41038907D01*
X60101007Y-40999500D01*
X60101003Y-40999500D01*
X59898997Y-40999500D01*
X59898992Y-40999500D01*
X59700880Y-41038907D01*
X59700872Y-41038909D01*
X59514244Y-41116213D01*
X59433891Y-41169904D01*
X59367213Y-41190782D01*
X59299833Y-41172297D01*
X59296109Y-41169904D01*
X59215755Y-41116213D01*
X59029127Y-41038909D01*
X59029119Y-41038907D01*
X58831007Y-40999500D01*
X58831003Y-40999500D01*
X58628997Y-40999500D01*
X58628992Y-40999500D01*
X58430880Y-41038907D01*
X58430868Y-41038910D01*
X58350198Y-41072325D01*
X58280729Y-41079794D01*
X58235342Y-41060036D01*
X58235114Y-41060454D01*
X58230447Y-41057905D01*
X58228432Y-41057028D01*
X58227331Y-41056204D01*
X58227330Y-41056203D01*
X58227328Y-41056202D01*
X58092482Y-41005908D01*
X58092483Y-41005908D01*
X58032883Y-40999501D01*
X58032881Y-40999500D01*
X58032873Y-40999500D01*
X58032864Y-40999500D01*
X56887129Y-40999500D01*
X56887123Y-40999501D01*
X56827516Y-41005908D01*
X56692671Y-41056202D01*
X56692664Y-41056206D01*
X56577455Y-41142452D01*
X56577452Y-41142455D01*
X56491206Y-41257664D01*
X56491202Y-41257671D01*
X56440908Y-41392517D01*
X56434501Y-41452116D01*
X56434500Y-41452135D01*
X52213507Y-41452135D01*
X52254546Y-41411096D01*
X52365477Y-41258413D01*
X52451157Y-41090256D01*
X52509477Y-40910767D01*
X52522598Y-40827920D01*
X52539000Y-40724368D01*
X52539000Y-40535631D01*
X52520401Y-40418204D01*
X52517856Y-40402135D01*
X65449500Y-40402135D01*
X65449500Y-42097870D01*
X65449501Y-42097876D01*
X65455908Y-42157483D01*
X65506202Y-42292328D01*
X65506203Y-42292329D01*
X65506204Y-42292331D01*
X65592454Y-42407546D01*
X65600980Y-42413928D01*
X65642850Y-42469861D01*
X65647834Y-42539552D01*
X65637153Y-42569489D01*
X65544781Y-42750776D01*
X65481522Y-42945465D01*
X65449500Y-43147648D01*
X65449500Y-43352351D01*
X65481522Y-43554534D01*
X65544781Y-43749223D01*
X65637715Y-43931613D01*
X65758028Y-44097213D01*
X65902786Y-44241971D01*
X66057749Y-44354556D01*
X66068390Y-44362287D01*
X66184607Y-44421503D01*
X66250776Y-44455218D01*
X66250778Y-44455218D01*
X66250781Y-44455220D01*
X66314668Y-44475978D01*
X66445465Y-44518477D01*
X66546557Y-44534488D01*
X66647648Y-44550500D01*
X66647649Y-44550500D01*
X66852351Y-44550500D01*
X66852352Y-44550500D01*
X67054534Y-44518477D01*
X67249219Y-44455220D01*
X67431610Y-44362287D01*
X67524590Y-44294732D01*
X67597213Y-44241971D01*
X67597215Y-44241968D01*
X67597219Y-44241966D01*
X67741966Y-44097219D01*
X67741968Y-44097215D01*
X67741971Y-44097213D01*
X67803746Y-44012185D01*
X67862287Y-43931610D01*
X67955220Y-43749219D01*
X68018477Y-43554534D01*
X68050500Y-43352352D01*
X68050500Y-43147648D01*
X68034697Y-43047872D01*
X68018477Y-42945465D01*
X67973034Y-42805606D01*
X67955220Y-42750781D01*
X67955218Y-42750778D01*
X67955218Y-42750776D01*
X67862847Y-42569489D01*
X67849951Y-42500820D01*
X67876227Y-42436079D01*
X67899026Y-42413924D01*
X67907545Y-42407547D01*
X67907548Y-42407543D01*
X67993796Y-42292331D01*
X68044091Y-42157483D01*
X68050500Y-42097873D01*
X68050499Y-40402128D01*
X68044091Y-40342517D01*
X68009584Y-40250000D01*
X67993797Y-40207671D01*
X67993793Y-40207664D01*
X67907547Y-40092455D01*
X67907544Y-40092452D01*
X67792335Y-40006206D01*
X67792328Y-40006202D01*
X67657482Y-39955908D01*
X67657483Y-39955908D01*
X67597883Y-39949501D01*
X67597881Y-39949500D01*
X67597873Y-39949500D01*
X67597864Y-39949500D01*
X65902129Y-39949500D01*
X65902123Y-39949501D01*
X65842516Y-39955908D01*
X65707671Y-40006202D01*
X65707664Y-40006206D01*
X65592455Y-40092452D01*
X65592452Y-40092455D01*
X65506206Y-40207664D01*
X65506202Y-40207671D01*
X65455908Y-40342517D01*
X65449501Y-40402116D01*
X65449501Y-40402123D01*
X65449500Y-40402135D01*
X52517856Y-40402135D01*
X52509477Y-40349236D01*
X52509477Y-40349233D01*
X52451157Y-40169744D01*
X52365477Y-40001587D01*
X52254546Y-39848904D01*
X52121096Y-39715454D01*
X51968413Y-39604523D01*
X51800256Y-39518843D01*
X51620767Y-39460523D01*
X51620765Y-39460522D01*
X51620763Y-39460522D01*
X51434368Y-39431000D01*
X51434363Y-39431000D01*
X51245637Y-39431000D01*
X51245632Y-39431000D01*
X51059236Y-39460522D01*
X50879741Y-39518844D01*
X50711586Y-39604523D01*
X50624475Y-39667813D01*
X50558904Y-39715454D01*
X50558902Y-39715456D01*
X50558901Y-39715456D01*
X50425456Y-39848901D01*
X50425456Y-39848902D01*
X50425454Y-39848904D01*
X50377813Y-39914475D01*
X50314523Y-40001586D01*
X50228844Y-40169741D01*
X50170522Y-40349236D01*
X50141000Y-40535631D01*
X49120500Y-40535631D01*
X49120500Y-39702648D01*
X49088477Y-39500466D01*
X49075498Y-39460522D01*
X49025218Y-39305776D01*
X48949233Y-39156649D01*
X48932287Y-39123390D01*
X48881828Y-39053938D01*
X48811971Y-38957786D01*
X48667219Y-38813034D01*
X48545800Y-38724819D01*
X48503134Y-38669489D01*
X48497155Y-38599875D01*
X48529760Y-38538080D01*
X48590599Y-38503723D01*
X48618685Y-38500500D01*
X69887770Y-38500500D01*
X69954809Y-38520185D01*
X69975451Y-38536819D01*
X71213181Y-39774549D01*
X71246666Y-39835872D01*
X71249500Y-39862230D01*
X71249500Y-53485500D01*
X71229815Y-53552539D01*
X71177011Y-53598294D01*
X71125505Y-53609500D01*
X71102132Y-53609500D01*
X71102123Y-53609501D01*
X71042516Y-53615908D01*
X70907671Y-53666202D01*
X70907664Y-53666206D01*
X70792455Y-53752452D01*
X70792452Y-53752455D01*
X70706206Y-53867664D01*
X70706202Y-53867671D01*
X70655908Y-54002517D01*
X70649501Y-54062116D01*
X70649500Y-54062135D01*
X70649500Y-55857870D01*
X70649501Y-55857876D01*
X70655908Y-55917483D01*
X70706202Y-56052328D01*
X70706203Y-56052330D01*
X70783578Y-56155689D01*
X70807995Y-56221153D01*
X70793144Y-56289426D01*
X70783578Y-56304311D01*
X70706203Y-56407669D01*
X70706202Y-56407671D01*
X70655908Y-56542517D01*
X70649501Y-56602116D01*
X70649500Y-56602135D01*
X70649500Y-58397870D01*
X70649501Y-58397876D01*
X70655908Y-58457483D01*
X70706202Y-58592328D01*
X70706206Y-58592335D01*
X70792452Y-58707544D01*
X70792455Y-58707547D01*
X70907664Y-58793793D01*
X70907671Y-58793797D01*
X71042517Y-58844091D01*
X71042516Y-58844091D01*
X71049444Y-58844835D01*
X71102127Y-58850500D01*
X72897872Y-58850499D01*
X72957483Y-58844091D01*
X73092331Y-58793796D01*
X73207546Y-58707546D01*
X73293796Y-58592331D01*
X73342810Y-58460916D01*
X73384681Y-58404984D01*
X73450145Y-58380566D01*
X73518418Y-58395417D01*
X73546673Y-58416569D01*
X73660213Y-58530109D01*
X73832179Y-58655048D01*
X73832181Y-58655049D01*
X73832184Y-58655051D01*
X74021588Y-58751557D01*
X74223757Y-58817246D01*
X74433713Y-58850500D01*
X74433714Y-58850500D01*
X74646286Y-58850500D01*
X74646287Y-58850500D01*
X74856243Y-58817246D01*
X75058412Y-58751557D01*
X75247816Y-58655051D01*
X75334138Y-58592335D01*
X75419786Y-58530109D01*
X75419788Y-58530106D01*
X75419792Y-58530104D01*
X75570104Y-58379792D01*
X75570106Y-58379788D01*
X75570109Y-58379786D01*
X75695048Y-58207820D01*
X75695047Y-58207820D01*
X75695051Y-58207816D01*
X75699514Y-58199054D01*
X75747488Y-58148259D01*
X75815308Y-58131463D01*
X75881444Y-58153999D01*
X75920486Y-58199056D01*
X75924951Y-58207820D01*
X76049890Y-58379786D01*
X76200213Y-58530109D01*
X76372179Y-58655048D01*
X76372181Y-58655049D01*
X76372184Y-58655051D01*
X76561588Y-58751557D01*
X76763757Y-58817246D01*
X76973713Y-58850500D01*
X76973714Y-58850500D01*
X77186286Y-58850500D01*
X77186287Y-58850500D01*
X77396243Y-58817246D01*
X77598412Y-58751557D01*
X77787816Y-58655051D01*
X77874138Y-58592335D01*
X77959786Y-58530109D01*
X77959788Y-58530106D01*
X77959792Y-58530104D01*
X78110104Y-58379792D01*
X78110106Y-58379788D01*
X78110109Y-58379786D01*
X78235048Y-58207820D01*
X78235047Y-58207820D01*
X78235051Y-58207816D01*
X78239514Y-58199054D01*
X78287488Y-58148259D01*
X78355308Y-58131463D01*
X78421444Y-58153999D01*
X78460486Y-58199056D01*
X78464951Y-58207820D01*
X78589890Y-58379786D01*
X78740213Y-58530109D01*
X78912179Y-58655048D01*
X78912181Y-58655049D01*
X78912184Y-58655051D01*
X79101588Y-58751557D01*
X79303757Y-58817246D01*
X79513713Y-58850500D01*
X79513714Y-58850500D01*
X79726286Y-58850500D01*
X79726287Y-58850500D01*
X79936243Y-58817246D01*
X80138412Y-58751557D01*
X80327816Y-58655051D01*
X80414138Y-58592335D01*
X80499786Y-58530109D01*
X80499788Y-58530106D01*
X80499792Y-58530104D01*
X80650104Y-58379792D01*
X80650106Y-58379788D01*
X80650109Y-58379786D01*
X80775048Y-58207820D01*
X80775047Y-58207820D01*
X80775051Y-58207816D01*
X80871557Y-58018412D01*
X80937246Y-57816243D01*
X80970500Y-57606287D01*
X80970500Y-57393713D01*
X80937246Y-57183757D01*
X80871557Y-56981588D01*
X80775051Y-56792184D01*
X80775049Y-56792181D01*
X80775048Y-56792179D01*
X80650109Y-56620213D01*
X80499786Y-56469890D01*
X80327820Y-56344951D01*
X80327115Y-56344591D01*
X80319054Y-56340485D01*
X80268259Y-56292512D01*
X80251463Y-56224692D01*
X80273999Y-56158556D01*
X80319054Y-56119515D01*
X80327816Y-56115051D01*
X80382572Y-56075269D01*
X80499786Y-55990109D01*
X80499788Y-55990106D01*
X80499792Y-55990104D01*
X80650104Y-55839792D01*
X80650106Y-55839788D01*
X80650109Y-55839786D01*
X80775048Y-55667820D01*
X80775047Y-55667820D01*
X80775051Y-55667816D01*
X80871557Y-55478412D01*
X80937246Y-55276243D01*
X80970500Y-55066287D01*
X80970500Y-54853713D01*
X80937246Y-54643757D01*
X80871557Y-54441588D01*
X80775051Y-54252184D01*
X80775049Y-54252181D01*
X80775048Y-54252179D01*
X80650109Y-54080213D01*
X80499786Y-53929890D01*
X80327820Y-53804951D01*
X80138414Y-53708444D01*
X80138413Y-53708443D01*
X80138412Y-53708443D01*
X79936243Y-53642754D01*
X79936241Y-53642753D01*
X79936240Y-53642753D01*
X79774957Y-53617208D01*
X79726287Y-53609500D01*
X79513713Y-53609500D01*
X79465042Y-53617208D01*
X79303760Y-53642753D01*
X79101585Y-53708444D01*
X78912179Y-53804951D01*
X78740213Y-53929890D01*
X78589890Y-54080213D01*
X78464949Y-54252182D01*
X78460484Y-54260946D01*
X78412509Y-54311742D01*
X78344688Y-54328536D01*
X78278553Y-54305998D01*
X78239516Y-54260946D01*
X78235050Y-54252182D01*
X78110109Y-54080213D01*
X77959786Y-53929890D01*
X77787820Y-53804951D01*
X77598414Y-53708444D01*
X77598413Y-53708443D01*
X77598412Y-53708443D01*
X77396243Y-53642754D01*
X77396241Y-53642753D01*
X77396240Y-53642753D01*
X77234957Y-53617208D01*
X77186287Y-53609500D01*
X76973713Y-53609500D01*
X76925042Y-53617208D01*
X76763760Y-53642753D01*
X76561585Y-53708444D01*
X76372179Y-53804951D01*
X76200213Y-53929890D01*
X76049890Y-54080213D01*
X75924949Y-54252182D01*
X75920484Y-54260946D01*
X75872509Y-54311742D01*
X75804688Y-54328536D01*
X75738553Y-54305998D01*
X75699516Y-54260946D01*
X75695050Y-54252182D01*
X75570109Y-54080213D01*
X75419786Y-53929890D01*
X75247820Y-53804951D01*
X75058414Y-53708444D01*
X75058413Y-53708443D01*
X75058412Y-53708443D01*
X74856243Y-53642754D01*
X74856241Y-53642753D01*
X74856240Y-53642753D01*
X74694957Y-53617208D01*
X74646287Y-53609500D01*
X74433713Y-53609500D01*
X74385042Y-53617208D01*
X74223760Y-53642753D01*
X74021585Y-53708444D01*
X73832179Y-53804951D01*
X73660215Y-53929889D01*
X73546673Y-54043431D01*
X73485350Y-54076915D01*
X73415658Y-54071931D01*
X73359725Y-54030059D01*
X73342810Y-53999082D01*
X73293797Y-53867671D01*
X73293793Y-53867664D01*
X73207547Y-53752455D01*
X73207544Y-53752452D01*
X73092335Y-53666206D01*
X73092328Y-53666202D01*
X72957482Y-53615908D01*
X72957483Y-53615908D01*
X72897883Y-53609501D01*
X72897881Y-53609500D01*
X72897873Y-53609500D01*
X72897865Y-53609500D01*
X72874500Y-53609500D01*
X72807461Y-53589815D01*
X72761706Y-53537011D01*
X72750500Y-53485500D01*
X72750500Y-45099778D01*
X74849500Y-45099778D01*
X74849500Y-45320221D01*
X74883985Y-45537952D01*
X74952103Y-45747603D01*
X74952104Y-45747606D01*
X74994095Y-45830016D01*
X75050534Y-45940782D01*
X75052187Y-45944025D01*
X75181752Y-46122358D01*
X75181756Y-46122363D01*
X75232316Y-46172923D01*
X75265801Y-46234246D01*
X75260817Y-46303938D01*
X75218945Y-46359871D01*
X75187969Y-46376785D01*
X75107918Y-46406643D01*
X75107906Y-46406649D01*
X74992812Y-46492809D01*
X74992809Y-46492812D01*
X74906649Y-46607906D01*
X74906645Y-46607913D01*
X74856403Y-46742620D01*
X74856401Y-46742627D01*
X74850000Y-46802155D01*
X74850000Y-47500000D01*
X75874722Y-47500000D01*
X75830667Y-47576306D01*
X75800000Y-47690756D01*
X75800000Y-47809244D01*
X75830667Y-47923694D01*
X75874722Y-48000000D01*
X74850000Y-48000000D01*
X74850000Y-48697844D01*
X74856401Y-48757372D01*
X74856403Y-48757379D01*
X74906645Y-48892086D01*
X74906649Y-48892093D01*
X74992809Y-49007187D01*
X74992812Y-49007190D01*
X75107906Y-49093350D01*
X75107913Y-49093354D01*
X75242620Y-49143596D01*
X75242627Y-49143598D01*
X75302155Y-49149999D01*
X75302172Y-49150000D01*
X76000000Y-49150000D01*
X76000000Y-48125277D01*
X76076306Y-48169333D01*
X76190756Y-48200000D01*
X76309244Y-48200000D01*
X76423694Y-48169333D01*
X76500000Y-48125277D01*
X76500000Y-49150000D01*
X77197828Y-49150000D01*
X77197844Y-49149999D01*
X77257372Y-49143598D01*
X77257379Y-49143596D01*
X77392086Y-49093354D01*
X77392093Y-49093350D01*
X77507187Y-49007190D01*
X77507190Y-49007187D01*
X77593350Y-48892093D01*
X77593354Y-48892086D01*
X77643596Y-48757379D01*
X77643598Y-48757372D01*
X77649999Y-48697844D01*
X77650000Y-48697827D01*
X77650000Y-48000000D01*
X76625278Y-48000000D01*
X76669333Y-47923694D01*
X76700000Y-47809244D01*
X76700000Y-47690756D01*
X76669333Y-47576306D01*
X76625278Y-47500000D01*
X77650000Y-47500000D01*
X77650000Y-46802172D01*
X77649999Y-46802155D01*
X77643598Y-46742627D01*
X77643596Y-46742620D01*
X77593354Y-46607913D01*
X77593350Y-46607906D01*
X77507190Y-46492812D01*
X77507187Y-46492809D01*
X77392093Y-46406649D01*
X77392087Y-46406646D01*
X77312030Y-46376786D01*
X77256097Y-46334914D01*
X77231680Y-46269450D01*
X77246532Y-46201177D01*
X77267681Y-46172925D01*
X77318242Y-46122365D01*
X77447815Y-45944022D01*
X77547895Y-45747606D01*
X77616015Y-45537951D01*
X77650500Y-45320222D01*
X77650500Y-45099778D01*
X77616015Y-44882049D01*
X77547895Y-44672394D01*
X77547895Y-44672393D01*
X77485786Y-44550500D01*
X77447815Y-44475978D01*
X77431260Y-44453192D01*
X77318247Y-44297641D01*
X77318243Y-44297636D01*
X77162363Y-44141756D01*
X77162358Y-44141752D01*
X76984025Y-44012187D01*
X76984024Y-44012186D01*
X76984022Y-44012185D01*
X76921096Y-43980122D01*
X76787606Y-43912104D01*
X76787603Y-43912103D01*
X76577952Y-43843985D01*
X76469086Y-43826742D01*
X76360222Y-43809500D01*
X76139778Y-43809500D01*
X76067201Y-43820995D01*
X75922047Y-43843985D01*
X75712396Y-43912103D01*
X75712393Y-43912104D01*
X75515974Y-44012187D01*
X75337641Y-44141752D01*
X75337636Y-44141756D01*
X75181756Y-44297636D01*
X75181752Y-44297641D01*
X75052187Y-44475974D01*
X74952104Y-44672393D01*
X74952103Y-44672396D01*
X74883985Y-44882047D01*
X74849500Y-45099778D01*
X72750500Y-45099778D01*
X72750500Y-39426080D01*
X72743124Y-39389000D01*
X72730595Y-39326015D01*
X72721659Y-39281088D01*
X72666139Y-39147053D01*
X72665415Y-39145000D01*
X72632186Y-39095270D01*
X72632185Y-39095268D01*
X72582956Y-39021589D01*
X72582952Y-39021584D01*
X71493956Y-37932587D01*
X71411147Y-37849778D01*
X74849500Y-37849778D01*
X74849500Y-38070222D01*
X74853525Y-38095637D01*
X74883985Y-38287952D01*
X74952103Y-38497603D01*
X74952104Y-38497606D01*
X74989105Y-38570222D01*
X75051519Y-38692715D01*
X75052187Y-38694025D01*
X75181752Y-38872358D01*
X75181756Y-38872363D01*
X75232316Y-38922923D01*
X75265801Y-38984246D01*
X75260817Y-39053938D01*
X75218945Y-39109871D01*
X75187969Y-39126785D01*
X75107918Y-39156643D01*
X75107906Y-39156649D01*
X74992812Y-39242809D01*
X74992809Y-39242812D01*
X74906649Y-39357906D01*
X74906645Y-39357913D01*
X74856403Y-39492620D01*
X74856401Y-39492627D01*
X74850000Y-39552155D01*
X74850000Y-40250000D01*
X75874722Y-40250000D01*
X75830667Y-40326306D01*
X75800000Y-40440756D01*
X75800000Y-40559244D01*
X75830667Y-40673694D01*
X75874722Y-40750000D01*
X74850000Y-40750000D01*
X74850000Y-41447844D01*
X74856401Y-41507372D01*
X74856403Y-41507379D01*
X74906645Y-41642086D01*
X74906649Y-41642093D01*
X74992809Y-41757187D01*
X74992812Y-41757190D01*
X75107906Y-41843350D01*
X75107913Y-41843354D01*
X75242620Y-41893596D01*
X75242627Y-41893598D01*
X75302155Y-41899999D01*
X75302172Y-41900000D01*
X76000000Y-41900000D01*
X76000000Y-40875277D01*
X76076306Y-40919333D01*
X76190756Y-40950000D01*
X76309244Y-40950000D01*
X76423694Y-40919333D01*
X76500000Y-40875277D01*
X76500000Y-41900000D01*
X77197828Y-41900000D01*
X77197844Y-41899999D01*
X77257372Y-41893598D01*
X77257379Y-41893596D01*
X77392086Y-41843354D01*
X77392093Y-41843350D01*
X77507187Y-41757190D01*
X77507190Y-41757187D01*
X77593350Y-41642093D01*
X77593354Y-41642086D01*
X77643596Y-41507379D01*
X77643598Y-41507372D01*
X77649999Y-41447844D01*
X77650000Y-41447827D01*
X77650000Y-40750000D01*
X76625278Y-40750000D01*
X76669333Y-40673694D01*
X76700000Y-40559244D01*
X76700000Y-40440756D01*
X76669333Y-40326306D01*
X76625278Y-40250000D01*
X77650000Y-40250000D01*
X77650000Y-39552172D01*
X77649999Y-39552155D01*
X77643598Y-39492627D01*
X77643596Y-39492620D01*
X77593354Y-39357913D01*
X77593350Y-39357906D01*
X77507190Y-39242812D01*
X77507187Y-39242809D01*
X77392093Y-39156649D01*
X77392087Y-39156646D01*
X77312030Y-39126786D01*
X77256097Y-39084914D01*
X77231680Y-39019450D01*
X77246532Y-38951177D01*
X77267681Y-38922925D01*
X77318242Y-38872365D01*
X77447815Y-38694022D01*
X77547895Y-38497606D01*
X77616015Y-38287951D01*
X77650500Y-38070222D01*
X77650500Y-37849778D01*
X77616015Y-37632049D01*
X77547895Y-37422394D01*
X77547895Y-37422393D01*
X77475940Y-37281176D01*
X77447815Y-37225978D01*
X77374082Y-37124492D01*
X77318247Y-37047641D01*
X77318242Y-37047635D01*
X77162363Y-36891756D01*
X77162358Y-36891752D01*
X76984025Y-36762187D01*
X76984024Y-36762186D01*
X76984022Y-36762185D01*
X76915914Y-36727482D01*
X76787606Y-36662104D01*
X76787603Y-36662103D01*
X76577952Y-36593985D01*
X76423195Y-36569474D01*
X76360222Y-36559500D01*
X76139778Y-36559500D01*
X76076805Y-36569474D01*
X75922047Y-36593985D01*
X75712396Y-36662103D01*
X75712393Y-36662104D01*
X75515974Y-36762187D01*
X75337641Y-36891752D01*
X75337636Y-36891756D01*
X75181758Y-37047635D01*
X75181752Y-37047641D01*
X75052187Y-37225974D01*
X74952104Y-37422393D01*
X74952103Y-37422396D01*
X74883985Y-37632047D01*
X74849500Y-37849778D01*
X71411147Y-37849778D01*
X70728421Y-37167052D01*
X70728414Y-37167046D01*
X70654527Y-37117677D01*
X70654527Y-37117678D01*
X70605491Y-37084913D01*
X70468917Y-37028343D01*
X70468907Y-37028340D01*
X70323920Y-36999500D01*
X70323918Y-36999500D01*
X54844033Y-36999500D01*
X54776994Y-36979815D01*
X54731239Y-36927011D01*
X54721295Y-36857853D01*
X54750320Y-36794297D01*
X54805714Y-36757569D01*
X54999031Y-36694755D01*
X55181349Y-36601859D01*
X55225921Y-36569474D01*
X54546447Y-35890000D01*
X54552661Y-35890000D01*
X54654394Y-35862741D01*
X54745606Y-35810080D01*
X54820080Y-35735606D01*
X54872741Y-35644394D01*
X54900000Y-35542661D01*
X54900000Y-35536447D01*
X55579474Y-36215921D01*
X55611859Y-36171349D01*
X55704755Y-35989031D01*
X55767990Y-35794417D01*
X55800000Y-35592317D01*
X55800000Y-35387683D01*
X55795966Y-35362215D01*
X55795966Y-35362214D01*
X55793664Y-35347682D01*
X66700000Y-35347682D01*
X66700000Y-35552317D01*
X66732009Y-35754417D01*
X66795244Y-35949031D01*
X66888141Y-36131350D01*
X66888147Y-36131359D01*
X66920523Y-36175921D01*
X66920524Y-36175922D01*
X67600000Y-35496446D01*
X67600000Y-35502661D01*
X67627259Y-35604394D01*
X67679920Y-35695606D01*
X67754394Y-35770080D01*
X67845606Y-35822741D01*
X67947339Y-35850000D01*
X67953553Y-35850000D01*
X67274076Y-36529474D01*
X67318650Y-36561859D01*
X67500968Y-36654755D01*
X67695582Y-36717990D01*
X67897683Y-36750000D01*
X68102317Y-36750000D01*
X68304417Y-36717990D01*
X68499031Y-36654755D01*
X68681349Y-36561859D01*
X68725921Y-36529474D01*
X68046447Y-35850000D01*
X68052661Y-35850000D01*
X68154394Y-35822741D01*
X68245606Y-35770080D01*
X68320080Y-35695606D01*
X68372741Y-35604394D01*
X68400000Y-35502661D01*
X68400000Y-35496447D01*
X69079474Y-36175921D01*
X69111859Y-36131349D01*
X69204755Y-35949031D01*
X69267990Y-35754417D01*
X69300000Y-35552317D01*
X69300000Y-35347682D01*
X69267990Y-35145582D01*
X69204755Y-34950968D01*
X69111859Y-34768650D01*
X69079474Y-34724077D01*
X69079474Y-34724076D01*
X68400000Y-35403551D01*
X68400000Y-35397339D01*
X68372741Y-35295606D01*
X68320080Y-35204394D01*
X68245606Y-35129920D01*
X68154394Y-35077259D01*
X68052661Y-35050000D01*
X68046446Y-35050000D01*
X68725922Y-34370524D01*
X68725921Y-34370523D01*
X68681359Y-34338147D01*
X68681350Y-34338141D01*
X68530443Y-34261250D01*
X68499031Y-34245244D01*
X68304417Y-34182009D01*
X68137870Y-34155631D01*
X71051000Y-34155631D01*
X71051000Y-34344368D01*
X71080522Y-34530763D01*
X71080523Y-34530767D01*
X71138843Y-34710256D01*
X71224523Y-34878413D01*
X71335454Y-35031096D01*
X71468904Y-35164546D01*
X71621587Y-35275477D01*
X71789744Y-35361157D01*
X71969233Y-35419477D01*
X72039134Y-35430548D01*
X72155632Y-35449000D01*
X72155637Y-35449000D01*
X72344368Y-35449000D01*
X72447920Y-35432598D01*
X72530767Y-35419477D01*
X72710256Y-35361157D01*
X72878413Y-35275477D01*
X73031096Y-35164546D01*
X73164546Y-35031096D01*
X73275477Y-34878413D01*
X73361157Y-34710256D01*
X73419477Y-34530767D01*
X73435799Y-34427713D01*
X73449000Y-34344368D01*
X73449000Y-34155631D01*
X78671000Y-34155631D01*
X78671000Y-34344368D01*
X78700522Y-34530763D01*
X78700523Y-34530767D01*
X78758843Y-34710256D01*
X78844523Y-34878413D01*
X78955454Y-35031096D01*
X79088904Y-35164546D01*
X79241587Y-35275477D01*
X79409744Y-35361157D01*
X79589233Y-35419477D01*
X79659134Y-35430548D01*
X79775632Y-35449000D01*
X79775637Y-35449000D01*
X79964368Y-35449000D01*
X80067920Y-35432598D01*
X80150767Y-35419477D01*
X80330256Y-35361157D01*
X80498413Y-35275477D01*
X80651096Y-35164546D01*
X80784546Y-35031096D01*
X80895477Y-34878413D01*
X80981157Y-34710256D01*
X81039477Y-34530767D01*
X81055799Y-34427713D01*
X81069000Y-34344368D01*
X81069000Y-34155631D01*
X81039477Y-33969236D01*
X81039477Y-33969233D01*
X80981157Y-33789744D01*
X80895477Y-33621587D01*
X80784546Y-33468904D01*
X80651096Y-33335454D01*
X80498413Y-33224523D01*
X80330256Y-33138843D01*
X80150767Y-33080523D01*
X80150765Y-33080522D01*
X80150763Y-33080522D01*
X79964368Y-33051000D01*
X79964363Y-33051000D01*
X79775637Y-33051000D01*
X79775632Y-33051000D01*
X79589236Y-33080522D01*
X79409741Y-33138844D01*
X79241586Y-33224523D01*
X79154475Y-33287813D01*
X79088904Y-33335454D01*
X79088902Y-33335456D01*
X79088901Y-33335456D01*
X78955456Y-33468901D01*
X78955456Y-33468902D01*
X78955454Y-33468904D01*
X78919327Y-33518628D01*
X78844523Y-33621586D01*
X78758844Y-33789741D01*
X78700522Y-33969236D01*
X78671000Y-34155631D01*
X73449000Y-34155631D01*
X73419477Y-33969236D01*
X73419477Y-33969233D01*
X73361157Y-33789744D01*
X73275477Y-33621587D01*
X73164546Y-33468904D01*
X73031096Y-33335454D01*
X72878413Y-33224523D01*
X72710256Y-33138843D01*
X72530767Y-33080523D01*
X72530765Y-33080522D01*
X72530763Y-33080522D01*
X72344368Y-33051000D01*
X72344363Y-33051000D01*
X72155637Y-33051000D01*
X72155632Y-33051000D01*
X71969236Y-33080522D01*
X71789741Y-33138844D01*
X71621586Y-33224523D01*
X71534475Y-33287813D01*
X71468904Y-33335454D01*
X71468902Y-33335456D01*
X71468901Y-33335456D01*
X71335456Y-33468901D01*
X71335456Y-33468902D01*
X71335454Y-33468904D01*
X71299327Y-33518628D01*
X71224523Y-33621586D01*
X71138844Y-33789741D01*
X71080522Y-33969236D01*
X71051000Y-34155631D01*
X68137870Y-34155631D01*
X68102317Y-34150000D01*
X67897683Y-34150000D01*
X67695582Y-34182009D01*
X67500968Y-34245244D01*
X67318644Y-34338143D01*
X67274077Y-34370523D01*
X67274077Y-34370524D01*
X67953554Y-35050000D01*
X67947339Y-35050000D01*
X67845606Y-35077259D01*
X67754394Y-35129920D01*
X67679920Y-35204394D01*
X67627259Y-35295606D01*
X67600000Y-35397339D01*
X67600000Y-35403553D01*
X66920524Y-34724077D01*
X66920523Y-34724077D01*
X66888143Y-34768644D01*
X66795244Y-34950968D01*
X66732009Y-35145582D01*
X66700000Y-35347682D01*
X55793664Y-35347682D01*
X55767990Y-35185582D01*
X55704755Y-34990968D01*
X55611859Y-34808650D01*
X55579474Y-34764077D01*
X55579474Y-34764076D01*
X54900000Y-35443551D01*
X54900000Y-35437339D01*
X54872741Y-35335606D01*
X54820080Y-35244394D01*
X54745606Y-35169920D01*
X54654394Y-35117259D01*
X54552661Y-35090000D01*
X54546446Y-35090000D01*
X55225922Y-34410524D01*
X55225921Y-34410523D01*
X55181359Y-34378147D01*
X55181350Y-34378141D01*
X54999031Y-34285244D01*
X54804417Y-34222009D01*
X54602317Y-34190000D01*
X54397683Y-34190000D01*
X54195582Y-34222009D01*
X54000968Y-34285244D01*
X53818644Y-34378143D01*
X53774077Y-34410523D01*
X53774077Y-34410524D01*
X54453554Y-35090000D01*
X54447339Y-35090000D01*
X54345606Y-35117259D01*
X54254394Y-35169920D01*
X54179920Y-35244394D01*
X54127259Y-35335606D01*
X54100000Y-35437339D01*
X54100000Y-35443553D01*
X53420524Y-34764077D01*
X53420523Y-34764077D01*
X53388143Y-34808644D01*
X53295244Y-34990968D01*
X53232009Y-35185582D01*
X53200000Y-35387682D01*
X53200000Y-35592317D01*
X53232009Y-35794417D01*
X53295244Y-35989031D01*
X53388141Y-36171350D01*
X53388147Y-36171359D01*
X53420523Y-36215921D01*
X53420524Y-36215922D01*
X54100000Y-35536446D01*
X54100000Y-35542661D01*
X54127259Y-35644394D01*
X54179920Y-35735606D01*
X54254394Y-35810080D01*
X54345606Y-35862741D01*
X54447339Y-35890000D01*
X54453553Y-35890000D01*
X53774076Y-36569474D01*
X53818650Y-36601859D01*
X54000968Y-36694755D01*
X54194286Y-36757569D01*
X54251961Y-36797007D01*
X54279159Y-36861366D01*
X54267244Y-36930212D01*
X54220000Y-36981688D01*
X54155967Y-36999500D01*
X51374809Y-36999500D01*
X51307770Y-36979815D01*
X51262015Y-36927011D01*
X51252071Y-36857853D01*
X51281096Y-36794297D01*
X51336490Y-36757569D01*
X51499031Y-36704755D01*
X51681349Y-36611859D01*
X51725921Y-36579474D01*
X51046447Y-35900000D01*
X51052661Y-35900000D01*
X51154394Y-35872741D01*
X51245606Y-35820080D01*
X51320080Y-35745606D01*
X51372741Y-35654394D01*
X51400000Y-35552661D01*
X51400000Y-35546448D01*
X52079474Y-36225922D01*
X52079474Y-36225921D01*
X52111859Y-36181349D01*
X52204755Y-35999031D01*
X52267990Y-35804417D01*
X52300000Y-35602317D01*
X52300000Y-35397681D01*
X52299999Y-35397680D01*
X52267990Y-35195582D01*
X52204755Y-35000968D01*
X52111859Y-34818650D01*
X52079474Y-34774077D01*
X52079474Y-34774076D01*
X51400000Y-35453551D01*
X51400000Y-35447339D01*
X51372741Y-35345606D01*
X51320080Y-35254394D01*
X51245606Y-35179920D01*
X51154394Y-35127259D01*
X51052661Y-35100000D01*
X51046446Y-35100000D01*
X51725922Y-34420524D01*
X51725921Y-34420523D01*
X51681359Y-34388147D01*
X51681350Y-34388141D01*
X51499031Y-34295244D01*
X51304417Y-34232009D01*
X51102317Y-34200000D01*
X50897683Y-34200000D01*
X50695582Y-34232009D01*
X50500968Y-34295244D01*
X50318644Y-34388143D01*
X50274077Y-34420523D01*
X50274077Y-34420524D01*
X50953554Y-35100000D01*
X50947339Y-35100000D01*
X50845606Y-35127259D01*
X50754394Y-35179920D01*
X50679920Y-35254394D01*
X50627259Y-35345606D01*
X50600000Y-35447339D01*
X50600000Y-35453553D01*
X49920524Y-34774077D01*
X49920523Y-34774077D01*
X49888143Y-34818644D01*
X49795244Y-35000968D01*
X49732009Y-35195582D01*
X49700000Y-35397682D01*
X49700000Y-35602317D01*
X49732009Y-35804417D01*
X49795244Y-35999031D01*
X49888141Y-36181350D01*
X49888147Y-36181359D01*
X49920523Y-36225921D01*
X49920524Y-36225922D01*
X50600000Y-35546446D01*
X50600000Y-35552661D01*
X50627259Y-35654394D01*
X50679920Y-35745606D01*
X50754394Y-35820080D01*
X50845606Y-35872741D01*
X50947339Y-35900000D01*
X50953553Y-35900000D01*
X50274076Y-36579474D01*
X50318650Y-36611859D01*
X50500968Y-36704755D01*
X50663510Y-36757569D01*
X50721185Y-36797007D01*
X50748383Y-36861366D01*
X50736468Y-36930212D01*
X50689224Y-36981688D01*
X50625191Y-36999500D01*
X43676076Y-36999500D01*
X43647242Y-37005234D01*
X43647243Y-37005235D01*
X43531093Y-37028339D01*
X43531089Y-37028340D01*
X43489117Y-37045725D01*
X43489104Y-37045731D01*
X43484509Y-37047635D01*
X43394505Y-37084916D01*
X43341250Y-37120500D01*
X43335283Y-37124486D01*
X43335273Y-37124492D01*
X43271582Y-37167049D01*
X42167048Y-38271583D01*
X42146478Y-38302369D01*
X42126045Y-38332951D01*
X42084919Y-38394499D01*
X42084912Y-38394511D01*
X42028343Y-38531082D01*
X42028340Y-38531092D01*
X41999499Y-38676079D01*
X41998903Y-38682142D01*
X41996679Y-38681923D01*
X41979815Y-38739356D01*
X41948387Y-38772633D01*
X41892781Y-38813034D01*
X41892779Y-38813036D01*
X41892778Y-38813036D01*
X41748028Y-38957786D01*
X41627715Y-39123386D01*
X41580485Y-39216080D01*
X41532510Y-39266876D01*
X41464689Y-39283671D01*
X41398554Y-39261134D01*
X41359515Y-39216080D01*
X41329233Y-39156649D01*
X41312287Y-39123390D01*
X41261828Y-39053938D01*
X41191971Y-38957786D01*
X41047213Y-38813028D01*
X40881613Y-38692715D01*
X40881612Y-38692714D01*
X40881610Y-38692713D01*
X40824653Y-38663691D01*
X40699223Y-38599781D01*
X40504534Y-38536522D01*
X40329995Y-38508878D01*
X40302352Y-38504500D01*
X40097648Y-38504500D01*
X40073329Y-38508351D01*
X39895465Y-38536522D01*
X39700776Y-38599781D01*
X39518386Y-38692715D01*
X39352786Y-38813028D01*
X39208028Y-38957786D01*
X39087715Y-39123386D01*
X38994781Y-39305776D01*
X38931522Y-39500465D01*
X38899500Y-39702648D01*
X20500500Y-39702648D01*
X20500500Y-33750000D01*
X24140964Y-33750000D01*
X25391988Y-33750000D01*
X25359075Y-33807007D01*
X25325000Y-33934174D01*
X25325000Y-34065826D01*
X25359075Y-34192993D01*
X25391988Y-34250000D01*
X24140964Y-34250000D01*
X24147876Y-34293642D01*
X24147876Y-34293643D01*
X24208873Y-34481371D01*
X24298485Y-34657242D01*
X24414496Y-34816919D01*
X24414500Y-34816924D01*
X24554075Y-34956499D01*
X24554080Y-34956503D01*
X24713757Y-35072514D01*
X24889626Y-35162126D01*
X25077353Y-35223123D01*
X25272303Y-35254000D01*
X25875000Y-35254000D01*
X25875000Y-34500000D01*
X26375000Y-34500000D01*
X26375000Y-35254000D01*
X26977697Y-35254000D01*
X27172646Y-35223123D01*
X27360373Y-35162126D01*
X27536242Y-35072514D01*
X27695919Y-34956503D01*
X27695924Y-34956499D01*
X27835499Y-34816924D01*
X27835503Y-34816919D01*
X27951514Y-34657242D01*
X28041126Y-34481371D01*
X28102123Y-34293643D01*
X28102123Y-34293642D01*
X28109036Y-34250000D01*
X26858012Y-34250000D01*
X26890925Y-34192993D01*
X26925000Y-34065826D01*
X26925000Y-33934174D01*
X26890925Y-33807007D01*
X26858012Y-33750000D01*
X28109036Y-33750000D01*
X28102123Y-33706357D01*
X28102123Y-33706356D01*
X28041126Y-33518628D01*
X27951514Y-33342757D01*
X27835503Y-33183080D01*
X27835499Y-33183075D01*
X27695924Y-33043500D01*
X27695919Y-33043496D01*
X27536242Y-32927485D01*
X27360373Y-32837873D01*
X27172646Y-32776876D01*
X26977697Y-32746000D01*
X26375000Y-32746000D01*
X26375000Y-33500000D01*
X25875000Y-33500000D01*
X25875000Y-32746000D01*
X25272303Y-32746000D01*
X25077353Y-32776876D01*
X24889626Y-32837873D01*
X24713757Y-32927485D01*
X24554080Y-33043496D01*
X24554075Y-33043500D01*
X24414500Y-33183075D01*
X24414496Y-33183080D01*
X24298485Y-33342757D01*
X24208873Y-33518628D01*
X24147876Y-33706356D01*
X24147876Y-33706357D01*
X24140964Y-33750000D01*
X20500500Y-33750000D01*
X20500500Y-32876322D01*
X20520185Y-32809283D01*
X20572989Y-32763528D01*
X20642147Y-32753584D01*
X20697385Y-32776004D01*
X20754431Y-32817449D01*
X20767499Y-32826944D01*
X20943439Y-32916591D01*
X21068637Y-32957270D01*
X21131236Y-32977610D01*
X21326264Y-33008500D01*
X21326269Y-33008500D01*
X21523736Y-33008500D01*
X21718763Y-32977610D01*
X21906561Y-32916591D01*
X22082501Y-32826944D01*
X22205984Y-32737229D01*
X22242246Y-32710884D01*
X22242248Y-32710881D01*
X22242252Y-32710879D01*
X22381879Y-32571252D01*
X22381881Y-32571248D01*
X22381884Y-32571246D01*
X22432779Y-32501192D01*
X22497944Y-32411501D01*
X22587591Y-32235561D01*
X22648610Y-32047763D01*
X22653087Y-32019498D01*
X22679500Y-31852736D01*
X22679500Y-30147263D01*
X22648610Y-29952236D01*
X22592206Y-29778644D01*
X22587591Y-29764439D01*
X22497944Y-29588499D01*
X22471539Y-29552155D01*
X22381884Y-29428753D01*
X22242246Y-29289115D01*
X22082504Y-29173058D01*
X22082503Y-29173057D01*
X22082501Y-29173056D01*
X21906561Y-29083409D01*
X21874344Y-29072941D01*
X21718763Y-29022389D01*
X21523736Y-28991500D01*
X21523731Y-28991500D01*
X21326269Y-28991500D01*
X21326264Y-28991500D01*
X21131236Y-29022389D01*
X20943441Y-29083408D01*
X20767496Y-29173057D01*
X20697384Y-29223996D01*
X20631578Y-29247475D01*
X20563524Y-29231649D01*
X20514830Y-29181543D01*
X20500500Y-29123677D01*
X20500500Y-27901263D01*
X24116500Y-27901263D01*
X24116500Y-28098736D01*
X24147389Y-28293763D01*
X24208408Y-28481558D01*
X24208409Y-28481561D01*
X24298056Y-28657501D01*
X24298058Y-28657504D01*
X24414115Y-28817246D01*
X24553753Y-28956884D01*
X24687339Y-29053938D01*
X24713499Y-29072944D01*
X24889439Y-29162591D01*
X24979979Y-29192009D01*
X25077236Y-29223610D01*
X25272264Y-29254500D01*
X25272269Y-29254500D01*
X26266770Y-29254500D01*
X26333809Y-29274185D01*
X26354451Y-29290819D01*
X29713181Y-32649548D01*
X29746666Y-32710871D01*
X29749500Y-32737229D01*
X29749500Y-37193495D01*
X29729815Y-37260534D01*
X29713182Y-37281176D01*
X29585453Y-37408905D01*
X29474523Y-37561586D01*
X29388844Y-37729741D01*
X29330522Y-37909236D01*
X29301000Y-38095631D01*
X29301000Y-38284368D01*
X29318444Y-38394505D01*
X29330523Y-38470767D01*
X29388843Y-38650256D01*
X29474523Y-38818413D01*
X29585454Y-38971096D01*
X29718904Y-39104546D01*
X29871587Y-39215477D01*
X30039744Y-39301157D01*
X30219233Y-39359477D01*
X30289134Y-39370548D01*
X30405632Y-39389000D01*
X30405637Y-39389000D01*
X30594368Y-39389000D01*
X30697920Y-39372598D01*
X30780767Y-39359477D01*
X30960256Y-39301157D01*
X31128413Y-39215477D01*
X31281096Y-39104546D01*
X31414546Y-38971096D01*
X31525477Y-38818413D01*
X31611157Y-38650256D01*
X31669477Y-38470767D01*
X31698432Y-38287951D01*
X31699000Y-38284368D01*
X31699000Y-38095631D01*
X31669477Y-37909236D01*
X31669477Y-37909233D01*
X31611157Y-37729744D01*
X31525477Y-37561587D01*
X31414546Y-37408904D01*
X31286818Y-37281176D01*
X31253334Y-37219853D01*
X31250500Y-37193495D01*
X31250500Y-34572135D01*
X31499500Y-34572135D01*
X31499500Y-36667870D01*
X31499501Y-36667876D01*
X31505908Y-36727483D01*
X31556202Y-36862328D01*
X31556206Y-36862335D01*
X31642452Y-36977544D01*
X31642455Y-36977547D01*
X31757664Y-37063793D01*
X31757671Y-37063797D01*
X31892517Y-37114091D01*
X31892516Y-37114091D01*
X31899444Y-37114835D01*
X31952127Y-37120500D01*
X34047872Y-37120499D01*
X34107483Y-37114091D01*
X34242331Y-37063796D01*
X34357546Y-36977546D01*
X34443796Y-36862331D01*
X34494091Y-36727483D01*
X34500500Y-36667873D01*
X34500499Y-35437648D01*
X35199500Y-35437648D01*
X35199500Y-35642352D01*
X35201407Y-35654394D01*
X35231522Y-35844534D01*
X35294781Y-36039223D01*
X35358691Y-36164653D01*
X35384814Y-36215921D01*
X35387715Y-36221613D01*
X35508028Y-36387213D01*
X35652786Y-36531971D01*
X35748981Y-36601859D01*
X35818390Y-36652287D01*
X35921364Y-36704755D01*
X36000776Y-36745218D01*
X36000778Y-36745218D01*
X36000781Y-36745220D01*
X36105137Y-36779127D01*
X36195465Y-36808477D01*
X36296557Y-36824488D01*
X36397648Y-36840500D01*
X36397649Y-36840500D01*
X36602351Y-36840500D01*
X36602352Y-36840500D01*
X36804534Y-36808477D01*
X36999219Y-36745220D01*
X37181610Y-36652287D01*
X37281829Y-36579474D01*
X37347213Y-36531971D01*
X37347215Y-36531968D01*
X37347219Y-36531966D01*
X37491966Y-36387219D01*
X37491968Y-36387215D01*
X37491971Y-36387213D01*
X37544732Y-36314590D01*
X37612287Y-36221610D01*
X37705220Y-36039219D01*
X37768477Y-35844534D01*
X37800500Y-35642352D01*
X37800500Y-35437648D01*
X37768477Y-35235466D01*
X37705220Y-35040781D01*
X37705218Y-35040778D01*
X37705218Y-35040776D01*
X37659458Y-34950968D01*
X37612287Y-34858390D01*
X37604556Y-34847749D01*
X37491971Y-34692786D01*
X37347213Y-34548028D01*
X37181613Y-34427715D01*
X37181612Y-34427714D01*
X37181610Y-34427713D01*
X37124653Y-34398691D01*
X36999223Y-34334781D01*
X36804534Y-34271522D01*
X36629995Y-34243878D01*
X36602352Y-34239500D01*
X36397648Y-34239500D01*
X36373329Y-34243351D01*
X36195465Y-34271522D01*
X36000776Y-34334781D01*
X35818386Y-34427715D01*
X35652786Y-34548028D01*
X35508028Y-34692786D01*
X35387715Y-34858386D01*
X35294781Y-35040776D01*
X35231522Y-35235465D01*
X35207414Y-35387682D01*
X35199500Y-35437648D01*
X34500499Y-35437648D01*
X34500499Y-34572128D01*
X34494091Y-34512517D01*
X34489422Y-34500000D01*
X34443797Y-34377671D01*
X34443793Y-34377664D01*
X34357547Y-34262455D01*
X34357544Y-34262452D01*
X34242335Y-34176206D01*
X34242328Y-34176202D01*
X34107482Y-34125908D01*
X34107483Y-34125908D01*
X34047883Y-34119501D01*
X34047881Y-34119500D01*
X34047873Y-34119500D01*
X34047864Y-34119500D01*
X31952129Y-34119500D01*
X31952123Y-34119501D01*
X31892516Y-34125908D01*
X31757671Y-34176202D01*
X31757664Y-34176206D01*
X31642455Y-34262452D01*
X31642452Y-34262455D01*
X31556206Y-34377664D01*
X31556202Y-34377671D01*
X31505908Y-34512517D01*
X31502091Y-34548028D01*
X31499501Y-34572123D01*
X31499500Y-34572135D01*
X31250500Y-34572135D01*
X31250500Y-32301079D01*
X31221659Y-32156092D01*
X31221658Y-32156091D01*
X31221658Y-32156087D01*
X31176789Y-32047763D01*
X31165087Y-32019511D01*
X31165080Y-32019498D01*
X31082952Y-31896585D01*
X31039098Y-31852731D01*
X30978416Y-31792049D01*
X29544049Y-30357682D01*
X35200000Y-30357682D01*
X35200000Y-30562317D01*
X35232009Y-30764417D01*
X35295244Y-30959031D01*
X35388141Y-31141350D01*
X35388147Y-31141359D01*
X35420523Y-31185921D01*
X35420524Y-31185922D01*
X36100000Y-30506446D01*
X36100000Y-30512661D01*
X36127259Y-30614394D01*
X36179920Y-30705606D01*
X36254394Y-30780080D01*
X36345606Y-30832741D01*
X36447339Y-30860000D01*
X36453553Y-30860000D01*
X35774076Y-31539474D01*
X35818650Y-31571859D01*
X36000968Y-31664755D01*
X36195582Y-31727990D01*
X36397683Y-31760000D01*
X36602317Y-31760000D01*
X36804417Y-31727990D01*
X36999031Y-31664755D01*
X37181349Y-31571859D01*
X37225921Y-31539474D01*
X36546447Y-30860000D01*
X36552661Y-30860000D01*
X36654394Y-30832741D01*
X36745606Y-30780080D01*
X36820080Y-30705606D01*
X36872741Y-30614394D01*
X36900000Y-30512661D01*
X36900000Y-30506447D01*
X37579474Y-31185921D01*
X37611859Y-31141349D01*
X37704755Y-30959031D01*
X37767990Y-30764417D01*
X37800000Y-30562317D01*
X37800000Y-30357681D01*
X37795960Y-30332173D01*
X37793659Y-30317648D01*
X49699500Y-30317648D01*
X49699500Y-30522351D01*
X49731522Y-30724534D01*
X49794781Y-30919223D01*
X49815065Y-30959031D01*
X49882619Y-31091613D01*
X49887715Y-31101613D01*
X50008028Y-31267213D01*
X50152786Y-31411971D01*
X50249566Y-31482284D01*
X50318390Y-31532287D01*
X50402647Y-31575218D01*
X50500776Y-31625218D01*
X50500778Y-31625218D01*
X50500781Y-31625220D01*
X50552711Y-31642093D01*
X50695465Y-31688477D01*
X50796557Y-31704488D01*
X50897648Y-31720500D01*
X50897649Y-31720500D01*
X51102351Y-31720500D01*
X51102352Y-31720500D01*
X51304534Y-31688477D01*
X51499219Y-31625220D01*
X51681610Y-31532287D01*
X51797860Y-31447827D01*
X51847213Y-31411971D01*
X51847215Y-31411968D01*
X51847219Y-31411966D01*
X51991966Y-31267219D01*
X51991968Y-31267215D01*
X51991971Y-31267213D01*
X52051032Y-31185921D01*
X52112287Y-31101610D01*
X52205220Y-30919219D01*
X52268477Y-30724534D01*
X52300500Y-30522352D01*
X52300500Y-30317648D01*
X52298916Y-30307648D01*
X53199500Y-30307648D01*
X53199500Y-30512351D01*
X53231522Y-30714534D01*
X53294781Y-30909223D01*
X53358691Y-31034653D01*
X53367333Y-31051613D01*
X53387715Y-31091613D01*
X53508028Y-31257213D01*
X53652786Y-31401971D01*
X53763330Y-31482284D01*
X53818390Y-31522287D01*
X53922273Y-31575218D01*
X54000776Y-31615218D01*
X54000778Y-31615218D01*
X54000781Y-31615220D01*
X54072359Y-31638477D01*
X54195465Y-31678477D01*
X54258602Y-31688477D01*
X54397648Y-31710500D01*
X54397649Y-31710500D01*
X54602351Y-31710500D01*
X54602352Y-31710500D01*
X54804534Y-31678477D01*
X54999219Y-31615220D01*
X55181610Y-31522287D01*
X55284096Y-31447827D01*
X55347213Y-31401971D01*
X55347215Y-31401968D01*
X55347219Y-31401966D01*
X55491966Y-31257219D01*
X55491968Y-31257215D01*
X55491971Y-31257213D01*
X55544732Y-31184590D01*
X55612287Y-31091610D01*
X55705220Y-30909219D01*
X55768477Y-30714534D01*
X55800500Y-30512352D01*
X55800500Y-30307648D01*
X55794165Y-30267648D01*
X66699500Y-30267648D01*
X66699500Y-30472351D01*
X66731522Y-30674534D01*
X66794781Y-30869223D01*
X66887715Y-31051613D01*
X67008028Y-31217213D01*
X67152786Y-31361971D01*
X67307749Y-31474556D01*
X67318390Y-31482287D01*
X67430626Y-31539474D01*
X67500776Y-31575218D01*
X67500778Y-31575218D01*
X67500781Y-31575220D01*
X67605137Y-31609127D01*
X67695465Y-31638477D01*
X67796557Y-31654488D01*
X67897648Y-31670500D01*
X67897649Y-31670500D01*
X68102351Y-31670500D01*
X68102352Y-31670500D01*
X68304534Y-31638477D01*
X68499219Y-31575220D01*
X68681610Y-31482287D01*
X68774590Y-31414732D01*
X68847213Y-31361971D01*
X68847215Y-31361968D01*
X68847219Y-31361966D01*
X68991966Y-31217219D01*
X68991968Y-31217215D01*
X68991971Y-31217213D01*
X69083223Y-31091613D01*
X69112287Y-31051610D01*
X69205220Y-30869219D01*
X69268477Y-30674534D01*
X69300500Y-30472352D01*
X69300500Y-30267648D01*
X69274968Y-30106446D01*
X69268477Y-30065465D01*
X69239127Y-29975137D01*
X69205220Y-29870781D01*
X69205218Y-29870778D01*
X69205218Y-29870776D01*
X69137761Y-29738386D01*
X69112287Y-29688390D01*
X69039710Y-29588495D01*
X68991971Y-29522786D01*
X68847213Y-29378028D01*
X68681613Y-29257715D01*
X68681612Y-29257714D01*
X68681610Y-29257713D01*
X68614679Y-29223610D01*
X68499223Y-29164781D01*
X68304534Y-29101522D01*
X68124077Y-29072941D01*
X68102352Y-29069500D01*
X67897648Y-29069500D01*
X67875923Y-29072941D01*
X67695465Y-29101522D01*
X67500776Y-29164781D01*
X67318386Y-29257715D01*
X67152786Y-29378028D01*
X67008028Y-29522786D01*
X66887715Y-29688386D01*
X66794781Y-29870776D01*
X66731522Y-30065465D01*
X66699500Y-30267648D01*
X55794165Y-30267648D01*
X55773934Y-30139920D01*
X55768477Y-30105465D01*
X55718690Y-29952237D01*
X55705220Y-29910781D01*
X55705218Y-29910778D01*
X55705218Y-29910776D01*
X55671503Y-29844607D01*
X55612287Y-29728390D01*
X55583223Y-29688386D01*
X55491971Y-29562786D01*
X55347213Y-29418028D01*
X55181613Y-29297715D01*
X55181612Y-29297714D01*
X55181610Y-29297713D01*
X55083013Y-29247475D01*
X54999223Y-29204781D01*
X54804534Y-29141522D01*
X54629995Y-29113878D01*
X54602352Y-29109500D01*
X54397648Y-29109500D01*
X54373329Y-29113351D01*
X54195465Y-29141522D01*
X54000776Y-29204781D01*
X53818386Y-29297715D01*
X53652786Y-29418028D01*
X53508028Y-29562786D01*
X53387715Y-29728386D01*
X53294781Y-29910776D01*
X53231522Y-30105465D01*
X53199500Y-30307648D01*
X52298916Y-30307648D01*
X52268477Y-30115466D01*
X52265546Y-30106446D01*
X52239127Y-30025137D01*
X52205220Y-29920781D01*
X52205218Y-29920778D01*
X52205218Y-29920776D01*
X52171503Y-29854607D01*
X52112287Y-29738390D01*
X52104556Y-29727749D01*
X51991971Y-29572786D01*
X51847213Y-29428028D01*
X51681613Y-29307715D01*
X51681612Y-29307714D01*
X51681610Y-29307713D01*
X51583480Y-29257713D01*
X51499223Y-29214781D01*
X51304534Y-29151522D01*
X51128724Y-29123677D01*
X51102352Y-29119500D01*
X50897648Y-29119500D01*
X50873329Y-29123351D01*
X50695465Y-29151522D01*
X50500776Y-29214781D01*
X50318386Y-29307715D01*
X50152786Y-29428028D01*
X50008028Y-29572786D01*
X49887715Y-29738386D01*
X49794781Y-29920776D01*
X49731522Y-30115465D01*
X49699500Y-30317648D01*
X37793659Y-30317648D01*
X37767990Y-30155582D01*
X37704755Y-29960968D01*
X37611859Y-29778650D01*
X37579474Y-29734077D01*
X37579474Y-29734076D01*
X36900000Y-30413551D01*
X36900000Y-30407339D01*
X36872741Y-30305606D01*
X36820080Y-30214394D01*
X36745606Y-30139920D01*
X36654394Y-30087259D01*
X36552661Y-30060000D01*
X36546446Y-30060000D01*
X37225922Y-29380524D01*
X37225921Y-29380523D01*
X37181359Y-29348147D01*
X37181350Y-29348141D01*
X36999031Y-29255244D01*
X36804417Y-29192009D01*
X36602317Y-29160000D01*
X36397683Y-29160000D01*
X36195582Y-29192009D01*
X36000968Y-29255244D01*
X35818644Y-29348143D01*
X35774077Y-29380523D01*
X35774077Y-29380524D01*
X36453554Y-30060000D01*
X36447339Y-30060000D01*
X36345606Y-30087259D01*
X36254394Y-30139920D01*
X36179920Y-30214394D01*
X36127259Y-30305606D01*
X36100000Y-30407339D01*
X36100000Y-30413553D01*
X35420524Y-29734077D01*
X35420523Y-29734077D01*
X35388143Y-29778644D01*
X35295244Y-29960968D01*
X35232009Y-30155582D01*
X35200000Y-30357682D01*
X29544049Y-30357682D01*
X27979168Y-28792800D01*
X27945683Y-28731477D01*
X27950667Y-28661785D01*
X27956360Y-28648833D01*
X28041591Y-28481561D01*
X28102610Y-28293763D01*
X28130434Y-28118092D01*
X28133500Y-28098736D01*
X28133500Y-27901264D01*
X28132735Y-27896435D01*
X28132735Y-27896434D01*
X28130433Y-27881902D01*
X31499500Y-27881902D01*
X31499500Y-28118097D01*
X31536446Y-28351368D01*
X31609433Y-28575996D01*
X31716657Y-28786433D01*
X31855483Y-28977510D01*
X32022490Y-29144517D01*
X32213567Y-29283343D01*
X32297316Y-29326015D01*
X32424003Y-29390566D01*
X32424005Y-29390566D01*
X32424008Y-29390568D01*
X32539298Y-29428028D01*
X32648631Y-29463553D01*
X32881903Y-29500500D01*
X32881908Y-29500500D01*
X33118097Y-29500500D01*
X33351368Y-29463553D01*
X33575992Y-29390568D01*
X33786433Y-29283343D01*
X33977510Y-29144517D01*
X34144517Y-28977510D01*
X34283343Y-28786433D01*
X34390568Y-28575992D01*
X34463553Y-28351368D01*
X34473597Y-28287951D01*
X34500500Y-28118097D01*
X34500500Y-27881906D01*
X34497712Y-27864302D01*
X34497712Y-27864299D01*
X34495412Y-27849778D01*
X74849500Y-27849778D01*
X74849500Y-28070222D01*
X74854016Y-28098736D01*
X74883985Y-28287952D01*
X74952103Y-28497603D01*
X74952104Y-28497606D01*
X74992045Y-28575992D01*
X75033576Y-28657501D01*
X75052187Y-28694025D01*
X75181752Y-28872358D01*
X75181756Y-28872363D01*
X75232316Y-28922923D01*
X75265801Y-28984246D01*
X75260817Y-29053938D01*
X75218945Y-29109871D01*
X75187969Y-29126785D01*
X75107918Y-29156643D01*
X75107906Y-29156649D01*
X74992812Y-29242809D01*
X74992809Y-29242812D01*
X74906649Y-29357906D01*
X74906645Y-29357913D01*
X74856403Y-29492620D01*
X74856401Y-29492627D01*
X74850000Y-29552155D01*
X74850000Y-30250000D01*
X75874722Y-30250000D01*
X75830667Y-30326306D01*
X75800000Y-30440756D01*
X75800000Y-30559244D01*
X75830667Y-30673694D01*
X75874722Y-30750000D01*
X74850000Y-30750000D01*
X74850000Y-31447844D01*
X74856401Y-31507372D01*
X74856403Y-31507379D01*
X74906645Y-31642086D01*
X74906649Y-31642093D01*
X74992809Y-31757187D01*
X74992812Y-31757190D01*
X75107906Y-31843350D01*
X75107913Y-31843354D01*
X75242620Y-31893596D01*
X75242627Y-31893598D01*
X75302155Y-31899999D01*
X75302172Y-31900000D01*
X76000000Y-31900000D01*
X76000000Y-30875277D01*
X76076306Y-30919333D01*
X76190756Y-30950000D01*
X76309244Y-30950000D01*
X76423694Y-30919333D01*
X76500000Y-30875277D01*
X76500000Y-31900000D01*
X77197828Y-31900000D01*
X77197844Y-31899999D01*
X77257372Y-31893598D01*
X77257379Y-31893596D01*
X77392086Y-31843354D01*
X77392093Y-31843350D01*
X77507187Y-31757190D01*
X77507190Y-31757187D01*
X77593350Y-31642093D01*
X77593354Y-31642086D01*
X77643596Y-31507379D01*
X77643598Y-31507372D01*
X77649999Y-31447844D01*
X77650000Y-31447827D01*
X77650000Y-30750000D01*
X76625278Y-30750000D01*
X76669333Y-30673694D01*
X76700000Y-30559244D01*
X76700000Y-30440756D01*
X76669333Y-30326306D01*
X76625278Y-30250000D01*
X77650000Y-30250000D01*
X77650000Y-29552172D01*
X77649999Y-29552155D01*
X77643598Y-29492627D01*
X77643596Y-29492620D01*
X77593354Y-29357913D01*
X77593350Y-29357906D01*
X77507190Y-29242812D01*
X77507187Y-29242809D01*
X77392093Y-29156649D01*
X77392087Y-29156646D01*
X77312030Y-29126786D01*
X77256097Y-29084914D01*
X77231680Y-29019450D01*
X77246532Y-28951177D01*
X77267681Y-28922925D01*
X77318242Y-28872365D01*
X77447815Y-28694022D01*
X77547895Y-28497606D01*
X77616015Y-28287951D01*
X77650500Y-28070222D01*
X77650500Y-27849778D01*
X77616015Y-27632049D01*
X77579101Y-27518439D01*
X77547896Y-27422396D01*
X77547895Y-27422393D01*
X77507184Y-27342495D01*
X77447815Y-27225978D01*
X77416407Y-27182748D01*
X77318247Y-27047641D01*
X77318243Y-27047636D01*
X77162363Y-26891756D01*
X77162358Y-26891752D01*
X76984025Y-26762187D01*
X76984024Y-26762186D01*
X76984022Y-26762185D01*
X76921096Y-26730122D01*
X76787606Y-26662104D01*
X76787603Y-26662103D01*
X76577952Y-26593985D01*
X76469086Y-26576742D01*
X76360222Y-26559500D01*
X76139778Y-26559500D01*
X76067201Y-26570995D01*
X75922047Y-26593985D01*
X75712396Y-26662103D01*
X75712393Y-26662104D01*
X75515974Y-26762187D01*
X75337641Y-26891752D01*
X75337636Y-26891756D01*
X75181756Y-27047636D01*
X75181752Y-27047641D01*
X75052187Y-27225974D01*
X74952104Y-27422393D01*
X74952103Y-27422396D01*
X74883985Y-27632047D01*
X74872235Y-27706236D01*
X74849500Y-27849778D01*
X34495412Y-27849778D01*
X34463553Y-27648631D01*
X34390566Y-27424003D01*
X34334002Y-27312991D01*
X34283343Y-27213567D01*
X34144517Y-27022490D01*
X33977510Y-26855483D01*
X33786433Y-26716657D01*
X33575996Y-26609433D01*
X33351368Y-26536446D01*
X33118097Y-26499500D01*
X33118092Y-26499500D01*
X32881908Y-26499500D01*
X32881903Y-26499500D01*
X32648631Y-26536446D01*
X32424003Y-26609433D01*
X32213566Y-26716657D01*
X32131353Y-26776389D01*
X32022490Y-26855483D01*
X32022488Y-26855485D01*
X32022487Y-26855485D01*
X31855485Y-27022487D01*
X31855485Y-27022488D01*
X31855483Y-27022490D01*
X31837210Y-27047641D01*
X31716657Y-27213566D01*
X31609433Y-27424003D01*
X31536446Y-27648631D01*
X31499500Y-27881902D01*
X28130433Y-27881902D01*
X28102610Y-27706236D01*
X28078504Y-27632047D01*
X28041591Y-27518439D01*
X27951944Y-27342499D01*
X27944486Y-27332234D01*
X27835884Y-27182753D01*
X27696246Y-27043115D01*
X27536504Y-26927058D01*
X27536503Y-26927057D01*
X27536501Y-26927056D01*
X27360561Y-26837409D01*
X27360558Y-26837408D01*
X27172763Y-26776389D01*
X26977736Y-26745500D01*
X26977731Y-26745500D01*
X25272269Y-26745500D01*
X25272264Y-26745500D01*
X25077236Y-26776389D01*
X24889441Y-26837408D01*
X24713495Y-26927058D01*
X24553753Y-27043115D01*
X24414115Y-27182753D01*
X24298058Y-27342495D01*
X24208408Y-27518441D01*
X24147389Y-27706236D01*
X24116500Y-27901263D01*
X20500500Y-27901263D01*
X20500500Y-24155631D01*
X70991000Y-24155631D01*
X70991000Y-24344368D01*
X71020522Y-24530763D01*
X71020523Y-24530767D01*
X71078843Y-24710256D01*
X71164523Y-24878413D01*
X71275454Y-25031096D01*
X71408904Y-25164546D01*
X71561587Y-25275477D01*
X71729744Y-25361157D01*
X71909233Y-25419477D01*
X71979134Y-25430548D01*
X72095632Y-25449000D01*
X72095637Y-25449000D01*
X72284368Y-25449000D01*
X72387920Y-25432598D01*
X72470767Y-25419477D01*
X72650256Y-25361157D01*
X72818413Y-25275477D01*
X72971096Y-25164546D01*
X73104546Y-25031096D01*
X73215477Y-24878413D01*
X73301157Y-24710256D01*
X73359477Y-24530767D01*
X73372598Y-24447920D01*
X73389000Y-24344368D01*
X73389000Y-24155631D01*
X78611000Y-24155631D01*
X78611000Y-24344368D01*
X78640522Y-24530763D01*
X78640523Y-24530767D01*
X78698843Y-24710256D01*
X78784523Y-24878413D01*
X78895454Y-25031096D01*
X79028904Y-25164546D01*
X79181587Y-25275477D01*
X79349744Y-25361157D01*
X79529233Y-25419477D01*
X79599134Y-25430548D01*
X79715632Y-25449000D01*
X79715637Y-25449000D01*
X79904368Y-25449000D01*
X80007920Y-25432598D01*
X80090767Y-25419477D01*
X80270256Y-25361157D01*
X80438413Y-25275477D01*
X80591096Y-25164546D01*
X80724546Y-25031096D01*
X80835477Y-24878413D01*
X80921157Y-24710256D01*
X80979477Y-24530767D01*
X80992598Y-24447920D01*
X81009000Y-24344368D01*
X81009000Y-24155631D01*
X80979477Y-23969236D01*
X80979477Y-23969233D01*
X80921157Y-23789744D01*
X80835477Y-23621587D01*
X80724546Y-23468904D01*
X80591096Y-23335454D01*
X80438413Y-23224523D01*
X80270256Y-23138843D01*
X80090767Y-23080523D01*
X80090765Y-23080522D01*
X80090763Y-23080522D01*
X79904368Y-23051000D01*
X79904363Y-23051000D01*
X79715637Y-23051000D01*
X79715632Y-23051000D01*
X79529236Y-23080522D01*
X79349741Y-23138844D01*
X79181586Y-23224523D01*
X79094475Y-23287813D01*
X79028904Y-23335454D01*
X79028902Y-23335456D01*
X79028901Y-23335456D01*
X78895456Y-23468901D01*
X78895456Y-23468902D01*
X78895454Y-23468904D01*
X78847813Y-23534475D01*
X78784523Y-23621586D01*
X78698844Y-23789741D01*
X78640522Y-23969236D01*
X78611000Y-24155631D01*
X73389000Y-24155631D01*
X73359477Y-23969236D01*
X73359477Y-23969233D01*
X73301157Y-23789744D01*
X73215477Y-23621587D01*
X73104546Y-23468904D01*
X72971096Y-23335454D01*
X72818413Y-23224523D01*
X72650256Y-23138843D01*
X72470767Y-23080523D01*
X72470765Y-23080522D01*
X72470763Y-23080522D01*
X72284368Y-23051000D01*
X72284363Y-23051000D01*
X72095637Y-23051000D01*
X72095632Y-23051000D01*
X71909236Y-23080522D01*
X71729741Y-23138844D01*
X71561586Y-23224523D01*
X71474475Y-23287813D01*
X71408904Y-23335454D01*
X71408902Y-23335456D01*
X71408901Y-23335456D01*
X71275456Y-23468901D01*
X71275456Y-23468902D01*
X71275454Y-23468904D01*
X71227813Y-23534475D01*
X71164523Y-23621586D01*
X71078844Y-23789741D01*
X71020522Y-23969236D01*
X70991000Y-24155631D01*
X20500500Y-24155631D01*
X20500500Y-20624500D01*
X20520185Y-20557461D01*
X20572989Y-20511706D01*
X20624500Y-20500500D01*
X81375500Y-20500500D01*
X81442539Y-20520185D01*
G37*
%TD.AperFunction*%
%TD*%
M02*
